<svg width="760" height="600" viewBox="0 0 760 600" fill="none" xmlns="http://www.w3.org/2000/svg">
<rect width="760" height="600" fill="white"/>
<path d="M224.491 71L223.084 70.6875C222.897 69.1042 222.574 67.8125 222.116 66.8125C220.386 66.6875 218.657 66.625 216.928 66.625C215.449 66.625 213.251 66.6875 210.334 66.8125C210.209 67.25 209.97 68.7708 209.616 71.375L208.272 71.25C207.855 69.0208 207.647 67.1042 207.647 65.5C207.647 65.4167 207.647 65.2708 207.647 65.0625C207.668 64.8542 207.678 64.6979 207.678 64.5938C207.699 64.5938 208.043 64.5938 208.709 64.5938C209.376 64.5729 209.72 64.5625 209.741 64.5625C210.282 63.4583 210.72 62.2708 211.053 61C211.407 59.7083 211.647 58.3333 211.772 56.875C211.897 55.3958 211.98 54.1042 212.022 53C212.064 51.875 212.084 50.4479 212.084 48.7188C212.084 46.9896 212.095 45.6979 212.116 44.8438C213.574 44.7396 216.824 44.6875 221.866 44.6875L222.553 64.2812C222.886 64.3229 223.23 64.3542 223.584 64.375C223.939 64.3958 224.282 64.4167 224.616 64.4375C224.553 64.875 224.522 65.4167 224.522 66.0625C224.522 66.3958 224.532 66.9167 224.553 67.625C224.574 68.3542 224.584 68.8958 224.584 69.25C224.584 69.9583 224.553 70.5417 224.491 71ZM212.241 64.375C212.803 64.375 213.647 64.3958 214.772 64.4375C215.897 64.4583 216.73 64.4688 217.272 64.4688C218.064 64.4688 218.886 64.4375 219.741 64.375C219.782 63.0625 219.803 61.0104 219.803 58.2188V52C219.803 49.5208 219.824 47.6771 219.866 46.4688C219.282 46.4271 218.845 46.4062 218.553 46.4062C218.074 46.4062 217.376 46.4375 216.459 46.5C215.564 46.5625 214.959 46.6042 214.647 46.625C214.584 47.5625 214.511 49.0417 214.428 51.0625C214.345 53.0625 214.261 54.6146 214.178 55.7188C214.095 56.8229 213.886 58.1979 213.553 59.8438C213.241 61.4688 212.803 62.9792 212.241 64.375ZM247.466 63.9688L247.778 65.3438C246.861 65.6771 245.497 66.0521 243.684 66.4688C241.893 66.8646 240.559 67.0625 239.684 67.0625C238.789 67.0625 238.007 66.7708 237.341 66.1875C236.674 65.5833 236.174 64.8229 235.841 63.9062C235.507 62.9688 235.257 62.0521 235.091 61.1562C234.945 60.2396 234.872 59.3438 234.872 58.4688C234.872 53.2604 237.226 50.6562 241.934 50.6562C243.059 50.6562 244.049 51.0208 244.903 51.75C245.757 52.4583 246.184 53.3854 246.184 54.5312C246.184 55.1562 246.007 55.7083 245.653 56.1875C245.32 56.6667 244.903 57.0521 244.403 57.3438C243.924 57.6146 243.299 57.8646 242.528 58.0938C241.778 58.3229 241.111 58.4896 240.528 58.5938C239.945 58.6979 239.247 58.8125 238.434 58.9375C237.622 59.0625 237.059 59.1562 236.747 59.2188C236.768 59.8229 236.799 60.3542 236.841 60.8125C236.903 61.2708 237.007 61.7708 237.153 62.3125C237.32 62.8333 237.528 63.2708 237.778 63.625C238.049 63.9583 238.414 64.2396 238.872 64.4688C239.33 64.6979 239.872 64.8125 240.497 64.8125C241.247 64.8125 242.164 64.75 243.247 64.625C244.33 64.4792 245.289 64.3333 246.122 64.1875C246.976 64.0417 247.424 63.9688 247.466 63.9688ZM236.872 57.2812C239.705 56.4688 242.028 55.6146 243.841 54.7188C243.695 54.0312 243.497 53.5312 243.247 53.2188C242.997 52.9062 242.622 52.75 242.122 52.75C240.851 52.75 239.695 53.1875 238.653 54.0625C237.632 54.9375 237.039 56.0104 236.872 57.2812ZM270.878 51.5938L273.003 51.4062C274.045 54.2188 275.107 59.4583 276.191 67.125C275.836 67.2083 275.482 67.25 275.128 67.25C274.816 67.25 274.451 67.1979 274.034 67.0938C273.743 65.9479 273.389 63.9271 272.972 61.0312C272.576 58.1354 272.222 56.0833 271.909 54.875C270.889 56.5417 269.514 59.6042 267.784 64.0625C267.639 64.0833 267.378 64.125 267.003 64.1875C266.649 64.25 266.378 64.2812 266.191 64.2812C265.961 64.2812 265.691 64.25 265.378 64.1875C265.045 63.3333 264.545 61.9688 263.878 60.0938C263.232 58.1979 262.711 56.7708 262.316 55.8125C260.316 60.9375 259.066 64.7292 258.566 67.1875L257.347 66.8438C257.451 65.2604 258.024 62.5 259.066 58.5625C260.107 54.6042 260.732 52.0833 260.941 51C261.191 51 261.472 51.0312 261.784 51.0938C262.118 51.1354 262.368 51.1562 262.534 51.1562C263.076 52.0938 263.816 53.8958 264.753 56.5625C265.691 59.2083 266.316 60.8646 266.628 61.5312C268.211 57.0312 269.628 53.7188 270.878 51.5938ZM287.072 60.3438C287.072 59.5104 287.155 58.5833 287.322 57.5625C287.509 56.5417 287.78 55.4688 288.134 54.3438C288.489 53.2188 289.02 52.2812 289.728 51.5312C290.436 50.7812 291.259 50.4062 292.197 50.4062C294.197 50.4062 295.801 51.3125 297.009 53.125C298.218 54.9167 298.822 56.9167 298.822 59.125C298.822 60.0625 298.718 61 298.509 61.9375C298.322 62.8542 298.02 63.7604 297.603 64.6562C297.186 65.5521 296.582 66.3021 295.791 66.9062C295.02 67.4896 294.114 67.8229 293.072 67.9062C291.155 67.6562 289.676 66.8438 288.634 65.4688C287.593 64.0729 287.072 62.3646 287.072 60.3438ZM292.384 52.0312C291.655 52.1146 291.041 52.7812 290.541 54.0312C290.041 55.2812 289.718 56.5 289.572 57.6875C289.426 58.8542 289.353 59.8854 289.353 60.7812C289.353 61.9479 289.707 63.0312 290.416 64.0312C291.145 65.0104 291.957 65.5 292.853 65.5C293.499 65.5 294.082 65.25 294.603 64.75C295.124 64.25 295.53 63.6354 295.822 62.9062C296.134 62.1562 296.364 61.4062 296.509 60.6562C296.676 59.9062 296.759 59.2396 296.759 58.6562C296.759 56.9479 296.374 55.4583 295.603 54.1875C294.832 52.9167 293.759 52.1979 292.384 52.0312ZM322.141 66.2188L322.234 67.5938C321.734 67.7188 321.38 67.7812 321.172 67.7812C320.38 67.7812 319.661 67.5208 319.016 67C318.37 66.4792 317.839 65.8438 317.422 65.0938C317.005 64.3438 316.609 63.5938 316.234 62.8438C315.88 62.0938 315.495 61.4583 315.078 60.9375C314.661 60.4167 314.234 60.1562 313.797 60.1562C313.63 60.1562 313.474 60.1875 313.328 60.25C313.411 61.5 313.557 63.5208 313.766 66.3125C313.578 66.9583 313.214 67.2812 312.672 67.2812C312.297 67.2812 311.932 67.1354 311.578 66.8438C311.245 66.5312 311.036 66.1562 310.953 65.7188C311.036 62.2188 311.078 58.9271 311.078 55.8438C311.078 53.5729 311.172 51.7708 311.359 50.4375L312.766 50.9375C312.932 51.75 313.026 52.9167 313.047 54.4375C313.068 55.9375 313.089 56.8646 313.109 57.2188C313.734 57.1146 314.276 56.7917 314.734 56.25C315.214 55.7083 315.599 55.0938 315.891 54.4062C316.203 53.7188 316.526 53.0417 316.859 52.375C317.193 51.7083 317.62 51.1458 318.141 50.6875C318.682 50.2292 319.318 50 320.047 50C320.422 50 321.005 50.125 321.797 50.375L321.672 51.4375C321.547 51.4167 321.38 51.4062 321.172 51.4062C320.339 51.4062 319.609 51.7604 318.984 52.4688C318.38 53.1562 317.922 53.9271 317.609 54.7812C317.318 55.6146 316.943 56.4167 316.484 57.1875C316.026 57.9583 315.526 58.4062 314.984 58.5312C315.755 58.7188 316.411 59.2396 316.953 60.0938C317.516 60.9479 317.932 61.8333 318.203 62.75C318.495 63.6458 318.911 64.4688 319.453 65.2188C319.995 65.9479 320.661 66.3125 321.453 66.3125C321.661 66.3125 321.891 66.2812 322.141 66.2188ZM333.491 50.5625L335.241 50.875C335.241 51.3125 335.251 51.6354 335.272 51.8438C336.418 51.1146 337.574 50.75 338.741 50.75C340.636 50.75 342.116 51.5625 343.178 53.1875C344.241 54.8125 344.772 56.6562 344.772 58.7188C344.772 59.7604 344.689 60.7604 344.522 61.7188C344.376 62.6562 344.105 63.625 343.709 64.625C343.314 65.6042 342.699 66.3958 341.866 67C341.053 67.5833 340.064 67.875 338.897 67.875C337.793 67.875 336.73 67.5833 335.709 67C335.793 70.6458 335.866 73.3542 335.928 75.125C335.741 75.7708 335.376 76.0938 334.834 76.0938C334.459 76.0938 334.095 75.9375 333.741 75.625C333.407 75.3333 333.199 74.9688 333.116 74.5312L333.491 50.5625ZM335.522 53.875L335.616 63.9688C335.866 64.4688 336.251 64.875 336.772 65.1875C337.293 65.4792 337.866 65.625 338.491 65.625C339.303 65.625 339.991 65.3646 340.553 64.8438C341.136 64.3229 341.543 63.6354 341.772 62.7812C342.022 61.9062 342.189 61.0938 342.272 60.3438C342.376 59.5938 342.428 58.8021 342.428 57.9688C342.428 54.4271 341.23 52.6562 338.834 52.6562C338.064 52.6562 337.345 52.7708 336.678 53C336.032 53.2083 335.647 53.5 335.522 53.875ZM358.028 53.5L357.403 51.9062C357.945 51.3646 358.632 50.9375 359.466 50.625C360.299 50.2917 361.122 50.125 361.934 50.125C365.455 50.125 367.216 53.1667 367.216 59.25C367.216 60.0833 367.164 61.3125 367.059 62.9375C366.976 64.5625 366.934 65.7812 366.934 66.5938C366.768 67.2396 366.445 67.5625 365.966 67.5625C365.591 67.5625 365.247 67.375 364.934 67C364.622 66.625 364.466 66.2083 364.466 65.75C364.466 65.6042 364.476 65.5 364.497 65.4375C363.205 66.6875 361.83 67.3125 360.372 67.3125C359.268 67.3125 358.299 66.9167 357.466 66.125C356.653 65.3125 356.247 64.3333 356.247 63.1875C356.247 61.25 356.997 59.5 358.497 57.9375C360.018 56.375 361.736 55.5938 363.653 55.5938C363.736 55.5938 363.82 55.6042 363.903 55.625C363.986 55.625 364.08 55.6354 364.184 55.6562C364.309 55.6771 364.403 55.6875 364.466 55.6875C364.299 53.25 363.33 52.0312 361.559 52.0312C360.518 52.0312 359.341 52.5208 358.028 53.5ZM364.559 63.2812C364.601 61.8229 364.622 60.7188 364.622 59.9688C364.622 59.3438 364.601 58.4688 364.559 57.3438H364.309C362.83 57.3646 361.476 57.9167 360.247 59C359.039 60.0833 358.434 61.3958 358.434 62.9375C358.434 63.6042 358.632 64.1354 359.028 64.5312C359.445 64.9271 359.945 65.125 360.528 65.125C361.445 65.125 362.789 64.5104 364.559 63.2812ZM378.347 52.6562L378.066 51.2812C380.857 51.1146 385.253 50.8854 391.253 50.5938C391.753 50.6146 392.18 50.8021 392.534 51.1562C392.889 51.5104 393.066 51.8854 393.066 52.2812C393.066 52.9062 392.649 53.2604 391.816 53.3438L385.972 53.0625C386.076 54.625 386.128 56.9062 386.128 59.9062C386.149 62.8854 386.191 65.0625 386.253 66.4375C386.066 67.0417 385.701 67.3438 385.159 67.3438C384.805 67.3438 384.461 67.1979 384.128 66.9062C383.795 66.6146 383.586 66.2604 383.503 65.8438C383.795 60.7188 384.097 56.4167 384.409 52.9375L378.347 52.6562ZM406.697 64.4062C406.697 64.7604 406.718 65.2292 406.759 65.8125C406.572 66.4583 406.207 66.7812 405.666 66.7812C405.291 66.7812 404.926 66.6354 404.572 66.3438C404.239 66.0312 404.03 65.6562 403.947 65.2188C404.009 63.5312 404.082 61.0625 404.166 57.8125C404.27 54.5625 404.343 52.3646 404.384 51.2188L405.822 50.9688C406.072 52.3021 406.228 54.0729 406.291 56.2812C406.353 58.4896 406.436 60.1354 406.541 61.2188C406.936 60.6354 408.061 59.1146 409.916 56.6562C411.77 54.1979 413.03 52.3646 413.697 51.1562C414.155 51.0729 414.447 51.0312 414.572 51.0312C414.968 51.0312 415.239 51.2083 415.384 51.5625C415.551 51.9167 415.655 52.5833 415.697 53.5625L416.291 66.4375C416.103 67.0625 415.739 67.375 415.197 67.375C414.822 67.375 414.457 67.2292 414.103 66.9375C413.77 66.625 413.561 66.25 413.478 65.8125C413.499 65.125 413.551 63.4479 413.634 60.7812C413.739 58.0938 413.822 56.1875 413.884 55.0625C410.322 59.125 407.926 62.2396 406.697 64.4062ZM430.297 59.2812L430.172 57.5312C430.234 57.5312 430.328 57.5417 430.453 57.5625C430.599 57.5625 430.703 57.5625 430.766 57.5625C432.87 57.5625 433.922 56.6458 433.922 54.8125C433.693 53.2083 432.807 52.4062 431.266 52.4062C430.682 52.4062 429.828 52.5729 428.703 52.9062L428.141 52C429.016 51.1875 430.266 50.7812 431.891 50.7812C433.036 50.7812 433.995 51.0729 434.766 51.6562C435.536 52.2396 435.922 53.0938 435.922 54.2188C435.922 54.9062 435.786 55.5833 435.516 56.25C435.245 56.8958 434.891 57.3854 434.453 57.7188C435.245 57.8854 435.859 58.4271 436.297 59.3438C436.755 60.2396 436.984 61.25 436.984 62.375C436.984 63.8333 436.516 65.1042 435.578 66.1875C434.641 67.2708 433.432 67.8125 431.953 67.8125C431.224 67.8125 430.349 67.6042 429.328 67.1875C428.307 66.7708 427.797 66.25 427.797 65.625C427.797 65.1875 428.078 64.9688 428.641 64.9688C429.016 64.9688 429.505 65.1458 430.109 65.5C430.714 65.8333 431.214 66 431.609 66C432.484 66 433.255 65.6146 433.922 64.8438C434.589 64.0729 434.922 63.2188 434.922 62.2812C434.922 61.2812 434.568 60.5312 433.859 60.0312C433.172 59.5104 432.286 59.25 431.203 59.25C430.786 59.25 430.484 59.2604 430.297 59.2812ZM450.272 53.5L449.647 51.9062C450.189 51.3646 450.876 50.9375 451.709 50.625C452.543 50.2917 453.366 50.125 454.178 50.125C457.699 50.125 459.459 53.1667 459.459 59.25C459.459 60.0833 459.407 61.3125 459.303 62.9375C459.22 64.5625 459.178 65.7812 459.178 66.5938C459.011 67.2396 458.689 67.5625 458.209 67.5625C457.834 67.5625 457.491 67.375 457.178 67C456.866 66.625 456.709 66.2083 456.709 65.75C456.709 65.6042 456.72 65.5 456.741 65.4375C455.449 66.6875 454.074 67.3125 452.616 67.3125C451.511 67.3125 450.543 66.9167 449.709 66.125C448.897 65.3125 448.491 64.3333 448.491 63.1875C448.491 61.25 449.241 59.5 450.741 57.9375C452.261 56.375 453.98 55.5938 455.897 55.5938C455.98 55.5938 456.064 55.6042 456.147 55.625C456.23 55.625 456.324 55.6354 456.428 55.6562C456.553 55.6771 456.647 55.6875 456.709 55.6875C456.543 53.25 455.574 52.0312 453.803 52.0312C452.761 52.0312 451.584 52.5208 450.272 53.5ZM456.803 63.2812C456.845 61.8229 456.866 60.7188 456.866 59.9688C456.866 59.3438 456.845 58.4688 456.803 57.3438H456.553C455.074 57.3646 453.72 57.9167 452.491 59C451.282 60.0833 450.678 61.3958 450.678 62.9375C450.678 63.6042 450.876 64.1354 451.272 64.5312C451.689 64.9271 452.189 65.125 452.772 65.125C453.689 65.125 455.032 64.5104 456.803 63.2812ZM471.591 67.0938C471.653 65.9479 471.695 63.3021 471.716 59.1562C471.736 54.9896 471.82 52.0938 471.966 50.4688L473.372 50.7812C473.518 52.4479 473.622 55.1146 473.684 58.7812C473.768 62.4479 473.82 64.4479 473.841 64.7812C474.153 64.7604 474.664 64.75 475.372 64.75C475.872 64.75 476.601 64.7604 477.559 64.7812C478.539 64.8021 479.226 64.8125 479.622 64.8125H480.497C480.559 63.5208 480.632 61.25 480.716 58C480.799 54.7292 480.882 52.3125 480.966 50.75L482.372 51.0625C482.455 52.6875 482.497 55.2604 482.497 58.7812C482.518 62.3021 482.528 64.3125 482.528 64.8125H484.872C484.851 65.3958 484.799 66.4688 484.716 68.0312C484.632 69.5938 484.58 70.7604 484.559 71.5312L483.059 71.2812L482.434 67.0938C479.726 67.1771 477.705 67.2188 476.372 67.2188C474.601 67.2188 473.007 67.1771 471.591 67.0938ZM499.128 64.4062C499.128 64.7604 499.149 65.2292 499.191 65.8125C499.003 66.4583 498.639 66.7812 498.097 66.7812C497.722 66.7812 497.357 66.6354 497.003 66.3438C496.67 66.0312 496.461 65.6562 496.378 65.2188C496.441 63.5312 496.514 61.0625 496.597 57.8125C496.701 54.5625 496.774 52.3646 496.816 51.2188L498.253 50.9688C498.503 52.3021 498.659 54.0729 498.722 56.2812C498.784 58.4896 498.868 60.1354 498.972 61.2188C499.368 60.6354 500.493 59.1146 502.347 56.6562C504.201 54.1979 505.461 52.3646 506.128 51.1562C506.586 51.0729 506.878 51.0312 507.003 51.0312C507.399 51.0312 507.67 51.2083 507.816 51.5625C507.982 51.9167 508.086 52.5833 508.128 53.5625L508.722 66.4375C508.534 67.0625 508.17 67.375 507.628 67.375C507.253 67.375 506.889 67.2292 506.534 66.9375C506.201 66.625 505.993 66.25 505.909 65.8125C505.93 65.125 505.982 63.4479 506.066 60.7812C506.17 58.0938 506.253 56.1875 506.316 55.0625C502.753 59.125 500.357 62.2396 499.128 64.4062ZM531.603 50.7812L532.072 67.5625C531.864 68.1875 531.509 68.5 531.009 68.5C530.655 68.5 530.301 68.3542 529.947 68.0625C529.614 67.7708 529.405 67.4167 529.322 67L529.634 60.2188C528.759 60.7812 527.853 61.0729 526.916 61.0938C526.124 63.6979 525.124 65.6042 523.916 66.8125C522.728 68.0208 520.822 68.9896 518.197 69.7188L517.697 68.375C521.593 67.3958 523.811 64.8229 524.353 60.6562C523.353 60.2396 522.52 59.6042 521.853 58.75C521.207 57.8958 520.884 56.9167 520.884 55.8125C520.884 53.6042 521.447 52.1354 522.572 51.4062C523.697 50.6771 525.478 50.3125 527.916 50.3125C529.186 50.3125 530.416 50.4688 531.603 50.7812ZM529.884 57.5938L529.728 52.6562C528.999 52.4271 527.926 52.3125 526.509 52.3125C525.509 52.3125 524.655 52.5417 523.947 53C523.239 53.4375 522.884 54.1562 522.884 55.1562C522.884 56.2812 523.332 57.25 524.228 58.0625C525.124 58.8542 526.103 59.25 527.166 59.25C528.416 59.25 529.322 58.6979 529.884 57.5938Z" fill="black"/>
<path d="M521.75 502.531C521.75 501.823 521.75 501.292 521.75 500.938C521.75 500.562 521.76 500 521.781 499.25C521.823 498.5 521.865 497.906 521.906 497.469C521.969 497.031 522.052 496.469 522.156 495.781C522.26 495.073 522.396 494.51 522.562 494.094C522.729 493.656 522.917 493.167 523.125 492.625C523.354 492.083 523.635 491.646 523.969 491.312C524.302 490.979 524.667 490.667 525.062 490.375C525.458 490.062 525.927 489.833 526.469 489.688C527.01 489.542 527.604 489.469 528.25 489.469C529.542 489.469 530.667 489.729 531.625 490.25C532.583 490.75 533.333 491.385 533.875 492.156C534.417 492.927 534.844 493.875 535.156 495C535.49 496.125 535.698 497.198 535.781 498.219C535.885 499.24 535.938 500.365 535.938 501.594C535.938 502.427 535.917 503.177 535.875 503.844C535.854 504.51 535.792 505.271 535.688 506.125C535.604 506.958 535.469 507.698 535.281 508.344C535.115 508.99 534.875 509.646 534.562 510.312C534.25 510.958 533.875 511.5 533.438 511.938C533.021 512.354 532.49 512.698 531.844 512.969C531.198 513.24 530.479 513.375 529.688 513.375C528.396 513.375 527.281 513.219 526.344 512.906C525.427 512.594 524.667 512.156 524.062 511.594C523.479 511.031 523.01 510.292 522.656 509.375C522.323 508.458 522.083 507.458 521.938 506.375C521.812 505.292 521.75 504.01 521.75 502.531ZM533.688 502.781C533.688 501.76 533.604 500.698 533.438 499.594C533.292 498.49 533.031 497.302 532.656 496.031C532.302 494.76 531.729 493.729 530.938 492.938C530.146 492.125 529.198 491.719 528.094 491.719C527.26 491.719 526.521 492.281 525.875 493.406C525.25 494.51 524.802 495.76 524.531 497.156C524.26 498.531 524.125 499.833 524.125 501.062C524.125 501.917 524.125 502.573 524.125 503.031C524.146 503.469 524.188 504.104 524.25 504.938C524.312 505.75 524.396 506.396 524.5 506.875C524.625 507.354 524.812 507.906 525.062 508.531C525.312 509.156 525.604 509.646 525.938 510C526.292 510.333 526.74 510.635 527.281 510.906C527.844 511.156 528.469 511.292 529.156 511.312C530.677 511.229 531.812 510.375 532.562 508.75C533.312 507.125 533.688 505.135 533.688 502.781ZM538.844 496.562L540.594 496.875C540.594 497.312 540.604 497.635 540.625 497.844C541.771 497.115 542.927 496.75 544.094 496.75C545.99 496.75 547.469 497.562 548.531 499.188C549.594 500.812 550.125 502.656 550.125 504.719C550.125 505.76 550.042 506.76 549.875 507.719C549.729 508.656 549.458 509.625 549.062 510.625C548.667 511.604 548.052 512.396 547.219 513C546.406 513.583 545.417 513.875 544.25 513.875C543.146 513.875 542.083 513.583 541.062 513C541.146 516.646 541.219 519.354 541.281 521.125C541.094 521.771 540.729 522.094 540.188 522.094C539.812 522.094 539.448 521.938 539.094 521.625C538.76 521.333 538.552 520.969 538.469 520.531L538.844 496.562ZM540.875 499.875L540.969 509.969C541.219 510.469 541.604 510.875 542.125 511.188C542.646 511.479 543.219 511.625 543.844 511.625C544.656 511.625 545.344 511.365 545.906 510.844C546.49 510.323 546.896 509.635 547.125 508.781C547.375 507.906 547.542 507.094 547.625 506.344C547.729 505.594 547.781 504.802 547.781 503.969C547.781 500.427 546.583 498.656 544.188 498.656C543.417 498.656 542.698 498.771 542.031 499C541.385 499.208 541 499.5 540.875 499.875ZM553.281 496.969C554.177 496.885 555.531 496.75 557.344 496.562C559.156 496.354 560.438 496.219 561.188 496.156C561.708 496.177 562.146 496.375 562.5 496.75C562.875 497.104 563.062 497.49 563.062 497.906C563.062 498.531 562.646 498.885 561.812 498.969C561.042 498.906 559.875 498.802 558.312 498.656C556.75 498.51 555.562 498.406 554.75 498.344C554.771 499.615 554.896 501.677 555.125 504.531C555.354 507.385 555.469 509.562 555.469 511.062C555.469 512.354 554.958 513 553.938 513C553.083 513 552.656 512.417 552.656 511.25C552.656 509.875 552.688 508.406 552.75 506.844C552.812 505.26 552.906 503.458 553.031 501.438C553.156 499.396 553.24 497.906 553.281 496.969ZM565.438 499.5L564.812 497.906C565.354 497.365 566.042 496.938 566.875 496.625C567.708 496.292 568.531 496.125 569.344 496.125C572.865 496.125 574.625 499.167 574.625 505.25C574.625 506.083 574.573 507.312 574.469 508.938C574.385 510.562 574.344 511.781 574.344 512.594C574.177 513.24 573.854 513.562 573.375 513.562C573 513.562 572.656 513.375 572.344 513C572.031 512.625 571.875 512.208 571.875 511.75C571.875 511.604 571.885 511.5 571.906 511.438C570.615 512.688 569.24 513.312 567.781 513.312C566.677 513.312 565.708 512.917 564.875 512.125C564.062 511.312 563.656 510.333 563.656 509.188C563.656 507.25 564.406 505.5 565.906 503.938C567.427 502.375 569.146 501.594 571.062 501.594C571.146 501.594 571.229 501.604 571.312 501.625C571.396 501.625 571.49 501.635 571.594 501.656C571.719 501.677 571.812 501.688 571.875 501.688C571.708 499.25 570.74 498.031 568.969 498.031C567.927 498.031 566.75 498.521 565.438 499.5ZM571.969 509.281C572.01 507.823 572.031 506.719 572.031 505.969C572.031 505.344 572.01 504.469 571.969 503.344H571.719C570.24 503.365 568.885 503.917 567.656 505C566.448 506.083 565.844 507.396 565.844 508.938C565.844 509.604 566.042 510.135 566.438 510.531C566.854 510.927 567.354 511.125 567.938 511.125C568.854 511.125 570.198 510.51 571.969 509.281ZM586.5 497.156L587.906 497.469L588.625 512.625C588.438 513.25 588.073 513.562 587.531 513.562C587.156 513.562 586.792 513.406 586.438 513.094C586.083 512.802 585.865 512.438 585.781 512C585.781 511.938 585.875 510.177 586.062 506.719V506.469C585.479 506.427 584.615 506.406 583.469 506.406C581.74 506.406 580.438 506.354 579.562 506.25C579.667 507.458 579.802 509.406 579.969 512.094C579.781 512.74 579.417 513.062 578.875 513.062C578.5 513.062 578.135 512.917 577.781 512.625C577.448 512.312 577.24 511.938 577.156 511.5C577.219 510.458 577.25 509.417 577.25 508.375C577.25 507.708 577.24 506.708 577.219 505.375C577.198 504.042 577.188 503.052 577.188 502.406C577.188 500.406 577.25 498.729 577.375 497.375L578.781 497.719C579.198 502.24 579.417 504.562 579.438 504.688C583 504.875 584.833 504.969 584.938 504.969C585.792 504.969 586.219 504.917 586.219 504.812C586.219 504.396 586.26 503.073 586.344 500.844C586.427 498.615 586.479 497.385 586.5 497.156ZM593.906 510.406C593.906 510.76 593.927 511.229 593.969 511.812C593.781 512.458 593.417 512.781 592.875 512.781C592.5 512.781 592.135 512.635 591.781 512.344C591.448 512.031 591.24 511.656 591.156 511.219C591.219 509.531 591.292 507.062 591.375 503.812C591.479 500.562 591.552 498.365 591.594 497.219L593.031 496.969C593.281 498.302 593.438 500.073 593.5 502.281C593.562 504.49 593.646 506.135 593.75 507.219C594.146 506.635 595.271 505.115 597.125 502.656C598.979 500.198 600.24 498.365 600.906 497.156C601.365 497.073 601.656 497.031 601.781 497.031C602.177 497.031 602.448 497.208 602.594 497.562C602.76 497.917 602.865 498.583 602.906 499.562L603.5 512.438C603.312 513.062 602.948 513.375 602.406 513.375C602.031 513.375 601.667 513.229 601.312 512.938C600.979 512.625 600.771 512.25 600.688 511.812C600.708 511.125 600.76 509.448 600.844 506.781C600.948 504.094 601.031 502.188 601.094 501.062C597.531 505.125 595.135 508.24 593.906 510.406ZM607.906 505.281L607.781 503.531C607.844 503.531 607.938 503.542 608.062 503.562C608.208 503.562 608.312 503.562 608.375 503.562C610.479 503.562 611.531 502.646 611.531 500.812C611.302 499.208 610.417 498.406 608.875 498.406C608.292 498.406 607.438 498.573 606.312 498.906L605.75 498C606.625 497.188 607.875 496.781 609.5 496.781C610.646 496.781 611.604 497.073 612.375 497.656C613.146 498.24 613.531 499.094 613.531 500.219C613.531 500.906 613.396 501.583 613.125 502.25C612.854 502.896 612.5 503.385 612.062 503.719C612.854 503.885 613.469 504.427 613.906 505.344C614.365 506.24 614.594 507.25 614.594 508.375C614.594 509.833 614.125 511.104 613.188 512.188C612.25 513.271 611.042 513.812 609.562 513.812C608.833 513.812 607.958 513.604 606.938 513.188C605.917 512.771 605.406 512.25 605.406 511.625C605.406 511.188 605.688 510.969 606.25 510.969C606.625 510.969 607.115 511.146 607.719 511.5C608.323 511.833 608.823 512 609.219 512C610.094 512 610.865 511.615 611.531 510.844C612.198 510.073 612.531 509.219 612.531 508.281C612.531 507.281 612.177 506.531 611.469 506.031C610.781 505.51 609.896 505.25 608.812 505.25C608.396 505.25 608.094 505.26 607.906 505.281ZM618.281 499.5L617.656 497.906C618.198 497.365 618.885 496.938 619.719 496.625C620.552 496.292 621.375 496.125 622.188 496.125C625.708 496.125 627.469 499.167 627.469 505.25C627.469 506.083 627.417 507.312 627.312 508.938C627.229 510.562 627.188 511.781 627.188 512.594C627.021 513.24 626.698 513.562 626.219 513.562C625.844 513.562 625.5 513.375 625.188 513C624.875 512.625 624.719 512.208 624.719 511.75C624.719 511.604 624.729 511.5 624.75 511.438C623.458 512.688 622.083 513.312 620.625 513.312C619.521 513.312 618.552 512.917 617.719 512.125C616.906 511.312 616.5 510.333 616.5 509.188C616.5 507.25 617.25 505.5 618.75 503.938C620.271 502.375 621.99 501.594 623.906 501.594C623.99 501.594 624.073 501.604 624.156 501.625C624.24 501.625 624.333 501.635 624.438 501.656C624.562 501.677 624.656 501.688 624.719 501.688C624.552 499.25 623.583 498.031 621.812 498.031C620.771 498.031 619.594 498.521 618.281 499.5ZM624.812 509.281C624.854 507.823 624.875 506.719 624.875 505.969C624.875 505.344 624.854 504.469 624.812 503.344H624.562C623.083 503.365 621.729 503.917 620.5 505C619.292 506.083 618.688 507.396 618.688 508.938C618.688 509.604 618.885 510.135 619.281 510.531C619.698 510.927 620.198 511.125 620.781 511.125C621.698 511.125 623.042 510.51 624.812 509.281ZM630 513.094C630.062 511.948 630.104 509.302 630.125 505.156C630.146 500.99 630.229 498.094 630.375 496.469L631.781 496.781C631.927 498.448 632.031 501.115 632.094 504.781C632.177 508.448 632.229 510.448 632.25 510.781C632.562 510.76 633.073 510.75 633.781 510.75C634.281 510.75 635.01 510.76 635.969 510.781C636.948 510.802 637.635 510.812 638.031 510.812H638.906C638.969 509.521 639.042 507.25 639.125 504C639.208 500.729 639.292 498.312 639.375 496.75L640.781 497.062C640.865 498.688 640.906 501.26 640.906 504.781C640.927 508.302 640.938 510.312 640.938 510.812H643.281C643.26 511.396 643.208 512.469 643.125 514.031C643.042 515.594 642.99 516.76 642.969 517.531L641.469 517.281L640.844 513.094C638.135 513.177 636.115 513.219 634.781 513.219C633.01 513.219 631.417 513.177 630 513.094ZM647.938 510.406C647.938 510.76 647.958 511.229 648 511.812C647.812 512.458 647.448 512.781 646.906 512.781C646.531 512.781 646.167 512.635 645.812 512.344C645.479 512.031 645.271 511.656 645.188 511.219C645.25 509.531 645.323 507.062 645.406 503.812C645.51 500.562 645.583 498.365 645.625 497.219L647.062 496.969C647.312 498.302 647.469 500.073 647.531 502.281C647.594 504.49 647.677 506.135 647.781 507.219C648.177 506.635 649.302 505.115 651.156 502.656C653.01 500.198 654.271 498.365 654.938 497.156C655.396 497.073 655.688 497.031 655.812 497.031C656.208 497.031 656.479 497.208 656.625 497.562C656.792 497.917 656.896 498.583 656.938 499.562L657.531 512.438C657.344 513.062 656.979 513.375 656.438 513.375C656.062 513.375 655.698 513.229 655.344 512.938C655.01 512.625 654.802 512.25 654.719 511.812C654.74 511.125 654.792 509.448 654.875 506.781C654.979 504.094 655.062 502.188 655.125 501.062C651.562 505.125 649.167 508.24 647.938 510.406ZM670.812 496.781L671.281 513.562C671.073 514.188 670.719 514.5 670.219 514.5C669.865 514.5 669.51 514.354 669.156 514.062C668.823 513.771 668.615 513.417 668.531 513L668.844 506.219C667.969 506.781 667.062 507.073 666.125 507.094C665.333 509.698 664.333 511.604 663.125 512.812C661.938 514.021 660.031 514.99 657.406 515.719L656.906 514.375C660.802 513.396 663.021 510.823 663.562 506.656C662.562 506.24 661.729 505.604 661.062 504.75C660.417 503.896 660.094 502.917 660.094 501.812C660.094 499.604 660.656 498.135 661.781 497.406C662.906 496.677 664.688 496.312 667.125 496.312C668.396 496.312 669.625 496.469 670.812 496.781ZM669.094 503.594L668.938 498.656C668.208 498.427 667.135 498.312 665.719 498.312C664.719 498.312 663.865 498.542 663.156 499C662.448 499.438 662.094 500.156 662.094 501.156C662.094 502.281 662.542 503.25 663.438 504.062C664.333 504.854 665.312 505.25 666.375 505.25C667.625 505.25 668.531 504.698 669.094 503.594ZM561.188 533.656L560.906 532.281C563.698 532.115 568.094 531.885 574.094 531.594C574.594 531.615 575.021 531.802 575.375 532.156C575.729 532.51 575.906 532.885 575.906 533.281C575.906 533.906 575.49 534.26 574.656 534.344L568.812 534.062C568.917 535.625 568.969 537.906 568.969 540.906C568.99 543.885 569.031 546.062 569.094 547.438C568.906 548.042 568.542 548.344 568 548.344C567.646 548.344 567.302 548.198 566.969 547.906C566.635 547.615 566.427 547.26 566.344 546.844C566.635 541.719 566.938 537.417 567.25 533.938L561.188 533.656ZM577.562 531.562L579.312 531.875C579.312 532.312 579.323 532.635 579.344 532.844C580.49 532.115 581.646 531.75 582.812 531.75C584.708 531.75 586.188 532.562 587.25 534.188C588.312 535.812 588.844 537.656 588.844 539.719C588.844 540.76 588.76 541.76 588.594 542.719C588.448 543.656 588.177 544.625 587.781 545.625C587.385 546.604 586.771 547.396 585.938 548C585.125 548.583 584.135 548.875 582.969 548.875C581.865 548.875 580.802 548.583 579.781 548C579.865 551.646 579.938 554.354 580 556.125C579.812 556.771 579.448 557.094 578.906 557.094C578.531 557.094 578.167 556.938 577.812 556.625C577.479 556.333 577.271 555.969 577.188 555.531L577.562 531.562ZM579.594 534.875L579.688 544.969C579.938 545.469 580.323 545.875 580.844 546.188C581.365 546.479 581.938 546.625 582.562 546.625C583.375 546.625 584.062 546.365 584.625 545.844C585.208 545.323 585.615 544.635 585.844 543.781C586.094 542.906 586.26 542.094 586.344 541.344C586.448 540.594 586.5 539.802 586.5 538.969C586.5 535.427 585.302 533.656 582.906 533.656C582.135 533.656 581.417 533.771 580.75 534C580.104 534.208 579.719 534.5 579.594 534.875ZM593.625 557.25L591.688 556.156C592.542 554.677 594.052 551.865 596.219 547.719C594.531 546.219 593.24 543.948 592.344 540.906C591.448 537.865 590.906 534.823 590.719 531.781L592.531 531.875C592.635 532.375 592.854 533.521 593.188 535.312C593.542 537.083 593.823 538.396 594.031 539.25C594.24 540.104 594.604 541.177 595.125 542.469C595.667 543.74 596.281 544.812 596.969 545.688C599.865 540.125 601.312 535.562 601.312 532V531.656C602.396 531.823 603.208 532.021 603.75 532.25C603.417 534.438 602.896 536.667 602.188 538.938C601.479 541.208 600.594 543.5 599.531 545.812C598.469 548.104 597.521 550.031 596.688 551.594C595.875 553.156 594.854 555.042 593.625 557.25ZM604.031 552.094L602.625 551.781C602.625 551.552 602.583 550.875 602.5 549.75C602.417 548.625 602.375 547.812 602.375 547.312C602.375 546.896 602.406 546.448 602.469 545.969H604.5C604.604 545.615 604.771 545.083 605 544.375C605.25 543.667 605.417 543.167 605.5 542.875C605.583 542.583 605.698 542.156 605.844 541.594C606.01 541.01 606.115 540.521 606.156 540.125C606.219 539.708 606.271 539.198 606.312 538.594C606.375 537.99 606.406 537.354 606.406 536.688C606.406 535.125 606.344 533.365 606.219 531.406C607.385 531.469 608.615 531.51 609.906 531.531C611.219 531.552 612.292 531.583 613.125 531.625C613.958 531.667 614.812 531.76 615.688 531.906C615.75 533.323 615.812 535.656 615.875 538.906C615.958 542.135 616.031 544.458 616.094 545.875H618.531V546.812C618.531 547.354 618.542 548.125 618.562 549.125C618.604 550.125 618.625 550.792 618.625 551.125C618.625 551.75 618.604 552.229 618.562 552.562L617.156 552.25C617.073 551.958 616.99 551.583 616.906 551.125C616.844 550.688 616.771 550.208 616.688 549.688C616.604 549.167 616.542 548.792 616.5 548.562C615.312 548.5 613.417 548.375 610.812 548.188C608.229 548 606.208 547.875 604.75 547.812L604.031 552.094ZM608.844 533.375C608.823 533.688 608.802 534.344 608.781 535.344C608.76 536.323 608.729 537.073 608.688 537.594C608.667 538.115 608.604 538.844 608.5 539.781C608.417 540.698 608.302 541.469 608.156 542.094C608.01 542.698 607.792 543.365 607.5 544.094C607.229 544.802 606.906 545.417 606.531 545.938H613.375L614 533.625C613.708 533.604 612.938 533.573 611.688 533.531C610.458 533.49 609.51 533.438 608.844 533.375ZM621.656 534.5L621.031 532.906C621.573 532.365 622.26 531.938 623.094 531.625C623.927 531.292 624.75 531.125 625.562 531.125C629.083 531.125 630.844 534.167 630.844 540.25C630.844 541.083 630.792 542.312 630.688 543.938C630.604 545.562 630.562 546.781 630.562 547.594C630.396 548.24 630.073 548.562 629.594 548.562C629.219 548.562 628.875 548.375 628.562 548C628.25 547.625 628.094 547.208 628.094 546.75C628.094 546.604 628.104 546.5 628.125 546.438C626.833 547.688 625.458 548.312 624 548.312C622.896 548.312 621.927 547.917 621.094 547.125C620.281 546.312 619.875 545.333 619.875 544.188C619.875 542.25 620.625 540.5 622.125 538.938C623.646 537.375 625.365 536.594 627.281 536.594C627.365 536.594 627.448 536.604 627.531 536.625C627.615 536.625 627.708 536.635 627.812 536.656C627.938 536.677 628.031 536.688 628.094 536.688C627.927 534.25 626.958 533.031 625.188 533.031C624.146 533.031 622.969 533.521 621.656 534.5ZM628.188 544.281C628.229 542.823 628.25 541.719 628.25 540.969C628.25 540.344 628.229 539.469 628.188 538.344H627.938C626.458 538.365 625.104 538.917 623.875 540C622.667 541.083 622.062 542.396 622.062 543.938C622.062 544.604 622.26 545.135 622.656 545.531C623.073 545.927 623.573 546.125 624.156 546.125C625.073 546.125 626.417 545.51 628.188 544.281Z" fill="black"/>
<path d="M286.578 512.312L286.672 513.5C285.568 513.833 284.516 514 283.516 514C282.557 514 281.734 513.74 281.047 513.219C280.38 512.719 279.87 512.083 279.516 511.312C279.182 510.542 278.839 509.708 278.484 508.812C278.151 507.917 277.828 507.083 277.516 506.312C277.224 505.542 276.786 504.906 276.203 504.406C275.62 503.885 274.922 503.625 274.109 503.625L274.422 512.812C274.234 513.458 273.87 513.781 273.328 513.781C272.953 513.781 272.589 513.625 272.234 513.312C271.901 513 271.693 512.625 271.609 512.188C271.63 511.75 271.703 508.229 271.828 501.625C271.953 495 272.047 491.167 272.109 490.125L273.516 490.438C273.536 491.229 273.599 492.719 273.703 494.906C273.807 497.073 273.87 498.542 273.891 499.312C274.786 499.292 275.547 498.958 276.172 498.312C276.818 497.646 277.339 496.844 277.734 495.906C278.151 494.969 278.568 494.042 278.984 493.125C279.401 492.188 279.943 491.396 280.609 490.75C281.297 490.083 282.109 489.75 283.047 489.75C283.755 489.75 284.953 489.906 286.641 490.219L286.328 491.469C285.036 491.26 284.297 491.156 284.109 491.156C283.38 491.156 282.766 491.458 282.266 492.062C281.766 492.667 281.349 493.427 281.016 494.344C280.682 495.24 280.318 496.167 279.922 497.125C279.526 498.062 278.943 498.927 278.172 499.719C277.401 500.51 276.453 501.042 275.328 501.312C276.328 501.542 277.193 501.99 277.922 502.656C278.651 503.323 279.193 504.073 279.547 504.906C279.901 505.74 280.245 506.625 280.578 507.562C280.911 508.479 281.203 509.312 281.453 510.062C281.703 510.812 282.047 511.438 282.484 511.938C282.943 512.438 283.495 512.688 284.141 512.688C284.766 512.688 285.578 512.562 286.578 512.312ZM286.328 506.344C286.328 505.51 286.411 504.583 286.578 503.562C286.766 502.542 287.036 501.469 287.391 500.344C287.745 499.219 288.276 498.281 288.984 497.531C289.693 496.781 290.516 496.406 291.453 496.406C293.453 496.406 295.057 497.312 296.266 499.125C297.474 500.917 298.078 502.917 298.078 505.125C298.078 506.062 297.974 507 297.766 507.938C297.578 508.854 297.276 509.76 296.859 510.656C296.443 511.552 295.839 512.302 295.047 512.906C294.276 513.49 293.37 513.823 292.328 513.906C290.411 513.656 288.932 512.844 287.891 511.469C286.849 510.073 286.328 508.365 286.328 506.344ZM291.641 498.031C290.911 498.115 290.297 498.781 289.797 500.031C289.297 501.281 288.974 502.5 288.828 503.688C288.682 504.854 288.609 505.885 288.609 506.781C288.609 507.948 288.964 509.031 289.672 510.031C290.401 511.01 291.214 511.5 292.109 511.5C292.755 511.5 293.339 511.25 293.859 510.75C294.38 510.25 294.786 509.635 295.078 508.906C295.391 508.156 295.62 507.406 295.766 506.656C295.932 505.906 296.016 505.24 296.016 504.656C296.016 502.948 295.63 501.458 294.859 500.188C294.089 498.917 293.016 498.198 291.641 498.031ZM312.859 497.594L314.984 497.406C316.026 500.219 317.089 505.458 318.172 513.125C317.818 513.208 317.464 513.25 317.109 513.25C316.797 513.25 316.432 513.198 316.016 513.094C315.724 511.948 315.37 509.927 314.953 507.031C314.557 504.135 314.203 502.083 313.891 500.875C312.87 502.542 311.495 505.604 309.766 510.062C309.62 510.083 309.359 510.125 308.984 510.188C308.63 510.25 308.359 510.281 308.172 510.281C307.943 510.281 307.672 510.25 307.359 510.188C307.026 509.333 306.526 507.969 305.859 506.094C305.214 504.198 304.693 502.771 304.297 501.812C302.297 506.938 301.047 510.729 300.547 513.188L299.328 512.844C299.432 511.26 300.005 508.5 301.047 504.562C302.089 500.604 302.714 498.083 302.922 497C303.172 497 303.453 497.031 303.766 497.094C304.099 497.135 304.349 497.156 304.516 497.156C305.057 498.094 305.797 499.896 306.734 502.562C307.672 505.208 308.297 506.865 308.609 507.531C310.193 503.031 311.609 499.719 312.859 497.594ZM319.672 497.375L330.203 497.469L330.922 512.625C330.734 513.25 330.37 513.562 329.828 513.562C329.453 513.562 329.089 513.406 328.734 513.094C328.38 512.802 328.161 512.438 328.078 512C328.099 511.625 328.13 510.448 328.172 508.469C328.234 506.469 328.297 504.562 328.359 502.75C328.422 500.917 328.464 499.729 328.484 499.188C327.901 499.146 327.036 499.125 325.891 499.125C324.328 499.125 323.026 499.062 321.984 498.938C322.047 499.625 322.099 501.844 322.141 505.594C322.182 509.323 322.224 511.49 322.266 512.094C322.078 512.74 321.714 513.062 321.172 513.062C320.797 513.062 320.432 512.917 320.078 512.625C319.745 512.312 319.536 511.938 319.453 511.5C319.516 510.458 319.547 509.417 319.547 508.375C319.547 507.833 319.536 506.938 319.516 505.688C319.495 504.438 319.484 503.448 319.484 502.719C319.484 500.573 319.547 498.792 319.672 497.375ZM346.047 509.969L346.359 511.344C345.443 511.677 344.078 512.052 342.266 512.469C340.474 512.865 339.141 513.062 338.266 513.062C337.37 513.062 336.589 512.771 335.922 512.188C335.255 511.583 334.755 510.823 334.422 509.906C334.089 508.969 333.839 508.052 333.672 507.156C333.526 506.24 333.453 505.344 333.453 504.469C333.453 499.26 335.807 496.656 340.516 496.656C341.641 496.656 342.63 497.021 343.484 497.75C344.339 498.458 344.766 499.385 344.766 500.531C344.766 501.156 344.589 501.708 344.234 502.188C343.901 502.667 343.484 503.052 342.984 503.344C342.505 503.615 341.88 503.865 341.109 504.094C340.359 504.323 339.693 504.49 339.109 504.594C338.526 504.698 337.828 504.812 337.016 504.938C336.203 505.062 335.641 505.156 335.328 505.219C335.349 505.823 335.38 506.354 335.422 506.812C335.484 507.271 335.589 507.771 335.734 508.312C335.901 508.833 336.109 509.271 336.359 509.625C336.63 509.958 336.995 510.24 337.453 510.469C337.911 510.698 338.453 510.812 339.078 510.812C339.828 510.812 340.745 510.75 341.828 510.625C342.911 510.479 343.87 510.333 344.703 510.188C345.557 510.042 346.005 509.969 346.047 509.969ZM335.453 503.281C338.286 502.469 340.609 501.615 342.422 500.719C342.276 500.031 342.078 499.531 341.828 499.219C341.578 498.906 341.203 498.75 340.703 498.75C339.432 498.75 338.276 499.188 337.234 500.062C336.214 500.938 335.62 502.01 335.453 503.281ZM346.609 498.656L346.328 497.281C349.12 497.115 353.516 496.885 359.516 496.594C360.016 496.615 360.443 496.802 360.797 497.156C361.151 497.51 361.328 497.885 361.328 498.281C361.328 498.906 360.911 499.26 360.078 499.344L354.234 499.062C354.339 500.625 354.391 502.906 354.391 505.906C354.411 508.885 354.453 511.062 354.516 512.438C354.328 513.042 353.964 513.344 353.422 513.344C353.068 513.344 352.724 513.198 352.391 512.906C352.057 512.615 351.849 512.26 351.766 511.844C352.057 506.719 352.359 502.417 352.672 498.938L346.609 498.656ZM374.078 509.969L374.391 511.344C373.474 511.677 372.109 512.052 370.297 512.469C368.505 512.865 367.172 513.062 366.297 513.062C365.401 513.062 364.62 512.771 363.953 512.188C363.286 511.583 362.786 510.823 362.453 509.906C362.12 508.969 361.87 508.052 361.703 507.156C361.557 506.24 361.484 505.344 361.484 504.469C361.484 499.26 363.839 496.656 368.547 496.656C369.672 496.656 370.661 497.021 371.516 497.75C372.37 498.458 372.797 499.385 372.797 500.531C372.797 501.156 372.62 501.708 372.266 502.188C371.932 502.667 371.516 503.052 371.016 503.344C370.536 503.615 369.911 503.865 369.141 504.094C368.391 504.323 367.724 504.49 367.141 504.594C366.557 504.698 365.859 504.812 365.047 504.938C364.234 505.062 363.672 505.156 363.359 505.219C363.38 505.823 363.411 506.354 363.453 506.812C363.516 507.271 363.62 507.771 363.766 508.312C363.932 508.833 364.141 509.271 364.391 509.625C364.661 509.958 365.026 510.24 365.484 510.469C365.943 510.698 366.484 510.812 367.109 510.812C367.859 510.812 368.776 510.75 369.859 510.625C370.943 510.479 371.901 510.333 372.734 510.188C373.589 510.042 374.036 509.969 374.078 509.969ZM363.484 503.281C366.318 502.469 368.641 501.615 370.453 500.719C370.307 500.031 370.109 499.531 369.859 499.219C369.609 498.906 369.234 498.75 368.734 498.75C367.464 498.75 366.307 499.188 365.266 500.062C364.245 500.938 363.651 502.01 363.484 503.281ZM384.984 497.156L386.391 497.469L387.109 512.625C386.922 513.25 386.557 513.562 386.016 513.562C385.641 513.562 385.276 513.406 384.922 513.094C384.568 512.802 384.349 512.438 384.266 512C384.266 511.938 384.359 510.177 384.547 506.719V506.469C383.964 506.427 383.099 506.406 381.953 506.406C380.224 506.406 378.922 506.354 378.047 506.25C378.151 507.458 378.286 509.406 378.453 512.094C378.266 512.74 377.901 513.062 377.359 513.062C376.984 513.062 376.62 512.917 376.266 512.625C375.932 512.312 375.724 511.938 375.641 511.5C375.703 510.458 375.734 509.417 375.734 508.375C375.734 507.708 375.724 506.708 375.703 505.375C375.682 504.042 375.672 503.052 375.672 502.406C375.672 500.406 375.734 498.729 375.859 497.375L377.266 497.719C377.682 502.24 377.901 504.562 377.922 504.688C381.484 504.875 383.318 504.969 383.422 504.969C384.276 504.969 384.703 504.917 384.703 504.812C384.703 504.396 384.745 503.073 384.828 500.844C384.911 498.615 384.964 497.385 384.984 497.156ZM388.641 498.656L388.359 497.281C391.151 497.115 395.547 496.885 401.547 496.594C402.047 496.615 402.474 496.802 402.828 497.156C403.182 497.51 403.359 497.885 403.359 498.281C403.359 498.906 402.943 499.26 402.109 499.344L396.266 499.062C396.37 500.625 396.422 502.906 396.422 505.906C396.443 508.885 396.484 511.062 396.547 512.438C396.359 513.042 395.995 513.344 395.453 513.344C395.099 513.344 394.755 513.198 394.422 512.906C394.089 512.615 393.88 512.26 393.797 511.844C394.089 506.719 394.391 502.417 394.703 498.938L388.641 498.656ZM413.984 497.156L415.391 497.469L416.109 512.625C415.922 513.25 415.557 513.562 415.016 513.562C414.641 513.562 414.276 513.406 413.922 513.094C413.568 512.802 413.349 512.438 413.266 512C413.266 511.938 413.359 510.177 413.547 506.719V506.469C412.964 506.427 412.099 506.406 410.953 506.406C409.224 506.406 407.922 506.354 407.047 506.25C407.151 507.458 407.286 509.406 407.453 512.094C407.266 512.74 406.901 513.062 406.359 513.062C405.984 513.062 405.62 512.917 405.266 512.625C404.932 512.312 404.724 511.938 404.641 511.5C404.703 510.458 404.734 509.417 404.734 508.375C404.734 507.708 404.724 506.708 404.703 505.375C404.682 504.042 404.672 503.052 404.672 502.406C404.672 500.406 404.734 498.729 404.859 497.375L406.266 497.719C406.682 502.24 406.901 504.562 406.922 504.688C410.484 504.875 412.318 504.969 412.422 504.969C413.276 504.969 413.703 504.917 413.703 504.812C413.703 504.396 413.745 503.073 413.828 500.844C413.911 498.615 413.964 497.385 413.984 497.156ZM418.641 506.344C418.641 505.51 418.724 504.583 418.891 503.562C419.078 502.542 419.349 501.469 419.703 500.344C420.057 499.219 420.589 498.281 421.297 497.531C422.005 496.781 422.828 496.406 423.766 496.406C425.766 496.406 427.37 497.312 428.578 499.125C429.786 500.917 430.391 502.917 430.391 505.125C430.391 506.062 430.286 507 430.078 507.938C429.891 508.854 429.589 509.76 429.172 510.656C428.755 511.552 428.151 512.302 427.359 512.906C426.589 513.49 425.682 513.823 424.641 513.906C422.724 513.656 421.245 512.844 420.203 511.469C419.161 510.073 418.641 508.365 418.641 506.344ZM423.953 498.031C423.224 498.115 422.609 498.781 422.109 500.031C421.609 501.281 421.286 502.5 421.141 503.688C420.995 504.854 420.922 505.885 420.922 506.781C420.922 507.948 421.276 509.031 421.984 510.031C422.714 511.01 423.526 511.5 424.422 511.5C425.068 511.5 425.651 511.25 426.172 510.75C426.693 510.25 427.099 509.635 427.391 508.906C427.703 508.156 427.932 507.406 428.078 506.656C428.245 505.906 428.328 505.24 428.328 504.656C428.328 502.948 427.943 501.458 427.172 500.188C426.401 498.917 425.328 498.198 423.953 498.031ZM443.453 497.5L443.297 498.844C442.422 498.719 441.672 498.656 441.047 498.656C439.609 498.656 438.422 499.094 437.484 499.969C436.547 500.823 435.901 501.844 435.547 503.031C435.214 504.198 435.047 505.5 435.047 506.938C435.047 507.604 435.089 508.198 435.172 508.719C435.255 509.24 435.401 509.75 435.609 510.25C435.839 510.75 436.182 511.146 436.641 511.438C437.12 511.708 437.703 511.844 438.391 511.844C439.307 511.844 440.474 511.667 441.891 511.312C442.328 511.146 442.672 511.062 442.922 511.062C443.422 511.062 443.724 511.646 443.828 512.812C441.995 513.396 440.297 513.688 438.734 513.688C436.464 513.688 434.922 513.135 434.109 512.031C433.318 510.906 432.922 509.094 432.922 506.594C432.922 505.135 433.016 503.865 433.203 502.781C433.411 501.677 433.766 500.656 434.266 499.719C434.766 498.76 435.484 498.031 436.422 497.531C437.38 497.031 438.547 496.781 439.922 496.781C441.464 496.781 442.641 497.021 443.453 497.5ZM444.422 498.656L444.141 497.281C446.932 497.115 451.328 496.885 457.328 496.594C457.828 496.615 458.255 496.802 458.609 497.156C458.964 497.51 459.141 497.885 459.141 498.281C459.141 498.906 458.724 499.26 457.891 499.344L452.047 499.062C452.151 500.625 452.203 502.906 452.203 505.906C452.224 508.885 452.266 511.062 452.328 512.438C452.141 513.042 451.776 513.344 451.234 513.344C450.88 513.344 450.536 513.198 450.203 512.906C449.87 512.615 449.661 512.26 449.578 511.844C449.87 506.719 450.172 502.417 450.484 498.938L444.422 498.656ZM460.516 497.156L461.922 497.469C461.964 498.135 462.026 498.917 462.109 499.812C462.214 500.708 462.328 501.729 462.453 502.875C463.286 502.625 464.078 502.5 464.828 502.5C465.724 502.5 466.557 502.677 467.328 503.031C468.099 503.365 468.755 503.812 469.297 504.375C469.839 504.938 470.266 505.583 470.578 506.312C470.891 507.021 471.047 507.75 471.047 508.5C471.047 509.229 470.891 509.896 470.578 510.5C470.266 511.104 469.849 511.625 469.328 512.062C468.807 512.479 468.203 512.802 467.516 513.031C466.828 513.281 466.099 513.406 465.328 513.406C465.182 513.406 464.859 513.396 464.359 513.375C463.859 513.354 463.328 513.302 462.766 513.219C462.224 513.156 461.734 513.062 461.297 512.938C460.859 512.812 460.63 512.635 460.609 512.406C460.609 512.052 460.599 511.573 460.578 510.969C460.578 510.344 460.568 509.656 460.547 508.906C460.547 508.156 460.536 507.375 460.516 506.562C460.495 505.729 460.474 504.927 460.453 504.156C460.453 503.385 460.443 502.677 460.422 502.031C460.422 501.385 460.422 500.875 460.422 500.5C460.422 499.333 460.453 498.219 460.516 497.156ZM462.734 504.812L462.453 511.094C463.286 511.385 464.078 511.531 464.828 511.531C465.411 511.531 465.943 511.438 466.422 511.25C466.922 511.042 467.339 510.781 467.672 510.469C468.005 510.135 468.266 509.76 468.453 509.344C468.641 508.927 468.734 508.49 468.734 508.031C468.734 507.573 468.641 507.146 468.453 506.75C468.266 506.333 467.984 505.969 467.609 505.656C467.234 505.344 466.776 505.104 466.234 504.938C465.693 504.75 465.078 504.656 464.391 504.656C464.161 504.656 463.911 504.677 463.641 504.719C463.37 504.74 463.068 504.771 462.734 504.812ZM331.109 550.812L330.609 549.469C331.297 549.198 331.922 548.771 332.484 548.188C333.026 547.604 333.474 547 333.828 546.375C334.182 545.729 334.484 544.927 334.734 543.969C334.984 543.01 335.161 542.177 335.266 541.469C335.391 540.74 335.484 539.844 335.547 538.781C335.609 537.719 335.641 536.927 335.641 536.406C335.661 535.865 335.672 535.146 335.672 534.25C335.672 532.979 335.786 532.219 336.016 531.969C336.307 531.656 337.922 531.5 340.859 531.5C343.172 531.5 344.484 531.49 344.797 531.469C344.839 539.927 344.943 545.417 345.109 547.938C344.901 548.562 344.536 548.875 344.016 548.875C343.661 548.875 343.318 548.729 342.984 548.438C342.651 548.146 342.443 547.792 342.359 547.375C342.339 546.562 342.328 545.354 342.328 543.75C342.328 542.958 342.328 541.76 342.328 540.156C342.349 538.552 342.359 537.344 342.359 536.531C342.359 535.031 342.349 533.906 342.328 533.156C341.453 533.302 340.589 533.385 339.734 533.406C338.88 533.427 338.276 533.458 337.922 533.5C337.859 534.188 337.807 535.208 337.766 536.562C337.724 537.917 337.682 539.115 337.641 540.156C337.62 541.177 337.495 542.344 337.266 543.656C337.036 544.948 336.703 546.052 336.266 546.969C335.849 547.865 335.193 548.667 334.297 549.375C333.422 550.104 332.359 550.583 331.109 550.812ZM350.234 541.75L350.391 547.594C350.203 548.198 349.839 548.5 349.297 548.5C348.943 548.5 348.599 548.354 348.266 548.062C347.932 547.771 347.724 547.417 347.641 547L348.297 533.219L349.672 533.5C349.901 537.646 350.016 539.781 350.016 539.906C350.12 539.885 350.286 539.875 350.516 539.875C350.786 539.875 351.203 539.906 351.766 539.969C352.328 540.01 352.745 540.031 353.016 540.031C353.62 540.031 354.161 539.948 354.641 539.781C354.724 538.823 354.818 538.01 354.922 537.344C355.026 536.656 355.193 535.948 355.422 535.219C355.672 534.469 355.964 533.865 356.297 533.406C356.651 532.948 357.109 532.573 357.672 532.281C358.234 531.99 358.891 531.844 359.641 531.844C360.349 531.844 360.953 531.948 361.453 532.156C361.974 532.344 362.464 532.719 362.922 533.281C363.401 533.823 363.766 534.667 364.016 535.812C364.266 536.938 364.391 538.354 364.391 540.062C364.391 540.729 364.286 541.5 364.078 542.375C363.87 543.229 363.557 544.115 363.141 545.031C362.724 545.948 362.12 546.719 361.328 547.344C360.536 547.969 359.641 548.281 358.641 548.281C357.391 548.281 356.37 547.938 355.578 547.25C354.807 546.542 354.422 545.531 354.422 544.219C354.422 543.448 354.432 542.854 354.453 542.438L350.234 541.75ZM362.297 537.969C362.297 537.552 362.255 537.115 362.172 536.656C362.109 536.198 361.984 535.719 361.797 535.219C361.63 534.719 361.37 534.312 361.016 534C360.682 533.667 360.276 533.5 359.797 533.5C359.214 533.5 358.703 533.74 358.266 534.219C357.828 534.698 357.495 535.312 357.266 536.062C357.036 536.792 356.859 537.531 356.734 538.281C356.63 539.01 356.578 539.719 356.578 540.406C356.578 541.948 356.661 543.125 356.828 543.938C356.995 544.75 357.224 545.292 357.516 545.562C357.807 545.812 358.214 545.938 358.734 545.938C359.484 545.938 360.141 545.469 360.703 544.531C361.266 543.573 361.672 542.51 361.922 541.344C362.172 540.156 362.297 539.031 362.297 537.969ZM366.109 552.094L364.703 551.781C364.703 551.552 364.661 550.875 364.578 549.75C364.495 548.625 364.453 547.812 364.453 547.312C364.453 546.896 364.484 546.448 364.547 545.969H366.578C366.682 545.615 366.849 545.083 367.078 544.375C367.328 543.667 367.495 543.167 367.578 542.875C367.661 542.583 367.776 542.156 367.922 541.594C368.089 541.01 368.193 540.521 368.234 540.125C368.297 539.708 368.349 539.198 368.391 538.594C368.453 537.99 368.484 537.354 368.484 536.688C368.484 535.125 368.422 533.365 368.297 531.406C369.464 531.469 370.693 531.51 371.984 531.531C373.297 531.552 374.37 531.583 375.203 531.625C376.036 531.667 376.891 531.76 377.766 531.906C377.828 533.323 377.891 535.656 377.953 538.906C378.036 542.135 378.109 544.458 378.172 545.875H380.609V546.812C380.609 547.354 380.62 548.125 380.641 549.125C380.682 550.125 380.703 550.792 380.703 551.125C380.703 551.75 380.682 552.229 380.641 552.562L379.234 552.25C379.151 551.958 379.068 551.583 378.984 551.125C378.922 550.688 378.849 550.208 378.766 549.688C378.682 549.167 378.62 548.792 378.578 548.562C377.391 548.5 375.495 548.375 372.891 548.188C370.307 548 368.286 547.875 366.828 547.812L366.109 552.094ZM370.922 533.375C370.901 533.688 370.88 534.344 370.859 535.344C370.839 536.323 370.807 537.073 370.766 537.594C370.745 538.115 370.682 538.844 370.578 539.781C370.495 540.698 370.38 541.469 370.234 542.094C370.089 542.698 369.87 543.365 369.578 544.094C369.307 544.802 368.984 545.417 368.609 545.938H375.453L376.078 533.625C375.786 533.604 375.016 533.573 373.766 533.531C372.536 533.49 371.589 533.438 370.922 533.375ZM393.641 544.969L393.953 546.344C393.036 546.677 391.672 547.052 389.859 547.469C388.068 547.865 386.734 548.062 385.859 548.062C384.964 548.062 384.182 547.771 383.516 547.188C382.849 546.583 382.349 545.823 382.016 544.906C381.682 543.969 381.432 543.052 381.266 542.156C381.12 541.24 381.047 540.344 381.047 539.469C381.047 534.26 383.401 531.656 388.109 531.656C389.234 531.656 390.224 532.021 391.078 532.75C391.932 533.458 392.359 534.385 392.359 535.531C392.359 536.156 392.182 536.708 391.828 537.188C391.495 537.667 391.078 538.052 390.578 538.344C390.099 538.615 389.474 538.865 388.703 539.094C387.953 539.323 387.286 539.49 386.703 539.594C386.12 539.698 385.422 539.812 384.609 539.938C383.797 540.062 383.234 540.156 382.922 540.219C382.943 540.823 382.974 541.354 383.016 541.812C383.078 542.271 383.182 542.771 383.328 543.312C383.495 543.833 383.703 544.271 383.953 544.625C384.224 544.958 384.589 545.24 385.047 545.469C385.505 545.698 386.047 545.812 386.672 545.812C387.422 545.812 388.339 545.75 389.422 545.625C390.505 545.479 391.464 545.333 392.297 545.188C393.151 545.042 393.599 544.969 393.641 544.969ZM383.047 538.281C385.88 537.469 388.203 536.615 390.016 535.719C389.87 535.031 389.672 534.531 389.422 534.219C389.172 533.906 388.797 533.75 388.297 533.75C387.026 533.75 385.87 534.188 384.828 535.062C383.807 535.938 383.214 537.01 383.047 538.281ZM398.047 528.562L397.828 527.594C398.328 527.656 398.818 527.688 399.297 527.688C400.734 527.688 402.057 527.292 403.266 526.5C403.745 526.542 404.151 526.688 404.484 526.938C404.818 527.188 404.984 527.479 404.984 527.812C404.984 528.083 404.891 528.302 404.703 528.469C404.516 528.635 404.234 528.76 403.859 528.844C403.484 528.906 403.172 528.948 402.922 528.969C402.672 528.969 402.339 528.969 401.922 528.969C400.568 528.969 399.276 528.833 398.047 528.562ZM397.953 545.406C397.953 545.76 397.974 546.229 398.016 546.812C397.828 547.458 397.464 547.781 396.922 547.781C396.547 547.781 396.182 547.635 395.828 547.344C395.495 547.031 395.286 546.656 395.203 546.219C395.266 544.531 395.339 542.062 395.422 538.812C395.526 535.562 395.599 533.365 395.641 532.219L397.078 531.969C397.328 533.302 397.484 535.073 397.547 537.281C397.609 539.49 397.693 541.135 397.797 542.219C398.193 541.635 399.318 540.115 401.172 537.656C403.026 535.198 404.286 533.365 404.953 532.156C405.411 532.073 405.703 532.031 405.828 532.031C406.224 532.031 406.495 532.208 406.641 532.562C406.807 532.917 406.911 533.583 406.953 534.562L407.547 547.438C407.359 548.062 406.995 548.375 406.453 548.375C406.078 548.375 405.714 548.229 405.359 547.938C405.026 547.625 404.818 547.25 404.734 546.812C404.755 546.125 404.807 544.448 404.891 541.781C404.995 539.094 405.078 537.188 405.141 536.062C401.578 540.125 399.182 543.24 397.953 545.406Z" fill="black"/>
<path d="M84.6719 517L83.2656 516.688C83.0781 515.104 82.7552 513.812 82.2969 512.812C80.5677 512.688 78.8385 512.625 77.1094 512.625C75.6302 512.625 73.4323 512.688 70.5156 512.812C70.3906 513.25 70.151 514.771 69.7969 517.375L68.4531 517.25C68.0365 515.021 67.8281 513.104 67.8281 511.5C67.8281 511.417 67.8281 511.271 67.8281 511.062C67.849 510.854 67.8594 510.698 67.8594 510.594C67.8802 510.594 68.224 510.594 68.8906 510.594C69.5573 510.573 69.901 510.562 69.9219 510.562C70.4635 509.458 70.901 508.271 71.2344 507C71.5885 505.708 71.8281 504.333 71.9531 502.875C72.0781 501.396 72.1615 500.104 72.2031 499C72.2448 497.875 72.2656 496.448 72.2656 494.719C72.2656 492.99 72.276 491.698 72.2969 490.844C73.7552 490.74 77.0052 490.688 82.0469 490.688L82.7344 510.281C83.0677 510.323 83.4115 510.354 83.7656 510.375C84.1198 510.396 84.4635 510.417 84.7969 510.438C84.7344 510.875 84.7031 511.417 84.7031 512.062C84.7031 512.396 84.7135 512.917 84.7344 513.625C84.7552 514.354 84.7656 514.896 84.7656 515.25C84.7656 515.958 84.7344 516.542 84.6719 517ZM72.4219 510.375C72.9844 510.375 73.8281 510.396 74.9531 510.438C76.0781 510.458 76.9115 510.469 77.4531 510.469C78.2448 510.469 79.0677 510.438 79.9219 510.375C79.9635 509.062 79.9844 507.01 79.9844 504.219V498C79.9844 495.521 80.0052 493.677 80.0469 492.469C79.4635 492.427 79.026 492.406 78.7344 492.406C78.2552 492.406 77.5573 492.438 76.6406 492.5C75.7448 492.562 75.1406 492.604 74.8281 492.625C74.7656 493.562 74.6927 495.042 74.6094 497.062C74.526 499.062 74.4427 500.615 74.3594 501.719C74.276 502.823 74.0677 504.198 73.7344 505.844C73.4219 507.469 72.9844 508.979 72.4219 510.375ZM86.7031 506.344C86.7031 505.51 86.7865 504.583 86.9531 503.562C87.1406 502.542 87.4115 501.469 87.7656 500.344C88.1198 499.219 88.651 498.281 89.3594 497.531C90.0677 496.781 90.8906 496.406 91.8281 496.406C93.8281 496.406 95.4323 497.312 96.6406 499.125C97.849 500.917 98.4531 502.917 98.4531 505.125C98.4531 506.062 98.349 507 98.1406 507.938C97.9531 508.854 97.651 509.76 97.2344 510.656C96.8177 511.552 96.2135 512.302 95.4219 512.906C94.651 513.49 93.7448 513.823 92.7031 513.906C90.7865 513.656 89.3073 512.844 88.2656 511.469C87.224 510.073 86.7031 508.365 86.7031 506.344ZM92.0156 498.031C91.2865 498.115 90.6719 498.781 90.1719 500.031C89.6719 501.281 89.349 502.5 89.2031 503.688C89.0573 504.854 88.9844 505.885 88.9844 506.781C88.9844 507.948 89.3385 509.031 90.0469 510.031C90.776 511.01 91.5885 511.5 92.4844 511.5C93.1302 511.5 93.7135 511.25 94.2344 510.75C94.7552 510.25 95.1615 509.635 95.4531 508.906C95.7656 508.156 95.9948 507.406 96.1406 506.656C96.3073 505.906 96.3906 505.24 96.3906 504.656C96.3906 502.948 96.0052 501.458 95.2344 500.188C94.4635 498.917 93.3906 498.198 92.0156 498.031ZM111.516 497.5L111.359 498.844C110.484 498.719 109.734 498.656 109.109 498.656C107.672 498.656 106.484 499.094 105.547 499.969C104.609 500.823 103.964 501.844 103.609 503.031C103.276 504.198 103.109 505.5 103.109 506.938C103.109 507.604 103.151 508.198 103.234 508.719C103.318 509.24 103.464 509.75 103.672 510.25C103.901 510.75 104.245 511.146 104.703 511.438C105.182 511.708 105.766 511.844 106.453 511.844C107.37 511.844 108.536 511.667 109.953 511.312C110.391 511.146 110.734 511.062 110.984 511.062C111.484 511.062 111.786 511.646 111.891 512.812C110.057 513.396 108.359 513.688 106.797 513.688C104.526 513.688 102.984 513.135 102.172 512.031C101.38 510.906 100.984 509.094 100.984 506.594C100.984 505.135 101.078 503.865 101.266 502.781C101.474 501.677 101.828 500.656 102.328 499.719C102.828 498.76 103.547 498.031 104.484 497.531C105.443 497.031 106.609 496.781 107.984 496.781C109.526 496.781 110.703 497.021 111.516 497.5ZM112.484 498.656L112.203 497.281C114.995 497.115 119.391 496.885 125.391 496.594C125.891 496.615 126.318 496.802 126.672 497.156C127.026 497.51 127.203 497.885 127.203 498.281C127.203 498.906 126.786 499.26 125.953 499.344L120.109 499.062C120.214 500.625 120.266 502.906 120.266 505.906C120.286 508.885 120.328 511.062 120.391 512.438C120.203 513.042 119.839 513.344 119.297 513.344C118.943 513.344 118.599 513.198 118.266 512.906C117.932 512.615 117.724 512.26 117.641 511.844C117.932 506.719 118.234 502.417 118.547 498.938L112.484 498.656ZM130.734 522.25L128.797 521.156C129.651 519.677 131.161 516.865 133.328 512.719C131.641 511.219 130.349 508.948 129.453 505.906C128.557 502.865 128.016 499.823 127.828 496.781L129.641 496.875C129.745 497.375 129.964 498.521 130.297 500.312C130.651 502.083 130.932 503.396 131.141 504.25C131.349 505.104 131.714 506.177 132.234 507.469C132.776 508.74 133.391 509.812 134.078 510.688C136.974 505.125 138.422 500.562 138.422 497V496.656C139.505 496.823 140.318 497.021 140.859 497.25C140.526 499.438 140.005 501.667 139.297 503.938C138.589 506.208 137.703 508.5 136.641 510.812C135.578 513.104 134.63 515.031 133.797 516.594C132.984 518.156 131.964 520.042 130.734 522.25ZM142.359 497.375L152.891 497.469L153.609 512.625C153.422 513.25 153.057 513.562 152.516 513.562C152.141 513.562 151.776 513.406 151.422 513.094C151.068 512.802 150.849 512.438 150.766 512C150.786 511.625 150.818 510.448 150.859 508.469C150.922 506.469 150.984 504.562 151.047 502.75C151.109 500.917 151.151 499.729 151.172 499.188C150.589 499.146 149.724 499.125 148.578 499.125C147.016 499.125 145.714 499.062 144.672 498.938C144.734 499.625 144.786 501.844 144.828 505.594C144.87 509.323 144.911 511.49 144.953 512.094C144.766 512.74 144.401 513.062 143.859 513.062C143.484 513.062 143.12 512.917 142.766 512.625C142.432 512.312 142.224 511.938 142.141 511.5C142.203 510.458 142.234 509.417 142.234 508.375C142.234 507.833 142.224 506.938 142.203 505.688C142.182 504.438 142.172 503.448 142.172 502.719C142.172 500.573 142.234 498.792 142.359 497.375ZM165.484 497.156L166.891 497.469L167.609 512.625C167.422 513.25 167.057 513.562 166.516 513.562C166.141 513.562 165.776 513.406 165.422 513.094C165.068 512.802 164.849 512.438 164.766 512C164.766 511.938 164.859 510.177 165.047 506.719V506.469C164.464 506.427 163.599 506.406 162.453 506.406C160.724 506.406 159.422 506.354 158.547 506.25C158.651 507.458 158.786 509.406 158.953 512.094C158.766 512.74 158.401 513.062 157.859 513.062C157.484 513.062 157.12 512.917 156.766 512.625C156.432 512.312 156.224 511.938 156.141 511.5C156.203 510.458 156.234 509.417 156.234 508.375C156.234 507.708 156.224 506.708 156.203 505.375C156.182 504.042 156.172 503.052 156.172 502.406C156.172 500.406 156.234 498.729 156.359 497.375L157.766 497.719C158.182 502.24 158.401 504.562 158.422 504.688C161.984 504.875 163.818 504.969 163.922 504.969C164.776 504.969 165.203 504.917 165.203 504.812C165.203 504.396 165.245 503.073 165.328 500.844C165.411 498.615 165.464 497.385 165.484 497.156ZM170.141 506.344C170.141 505.51 170.224 504.583 170.391 503.562C170.578 502.542 170.849 501.469 171.203 500.344C171.557 499.219 172.089 498.281 172.797 497.531C173.505 496.781 174.328 496.406 175.266 496.406C177.266 496.406 178.87 497.312 180.078 499.125C181.286 500.917 181.891 502.917 181.891 505.125C181.891 506.062 181.786 507 181.578 507.938C181.391 508.854 181.089 509.76 180.672 510.656C180.255 511.552 179.651 512.302 178.859 512.906C178.089 513.49 177.182 513.823 176.141 513.906C174.224 513.656 172.745 512.844 171.703 511.469C170.661 510.073 170.141 508.365 170.141 506.344ZM175.453 498.031C174.724 498.115 174.109 498.781 173.609 500.031C173.109 501.281 172.786 502.5 172.641 503.688C172.495 504.854 172.422 505.885 172.422 506.781C172.422 507.948 172.776 509.031 173.484 510.031C174.214 511.01 175.026 511.5 175.922 511.5C176.568 511.5 177.151 511.25 177.672 510.75C178.193 510.25 178.599 509.635 178.891 508.906C179.203 508.156 179.432 507.406 179.578 506.656C179.745 505.906 179.828 505.24 179.828 504.656C179.828 502.948 179.443 501.458 178.672 500.188C177.901 498.917 176.828 498.198 175.453 498.031ZM194.953 497.5L194.797 498.844C193.922 498.719 193.172 498.656 192.547 498.656C191.109 498.656 189.922 499.094 188.984 499.969C188.047 500.823 187.401 501.844 187.047 503.031C186.714 504.198 186.547 505.5 186.547 506.938C186.547 507.604 186.589 508.198 186.672 508.719C186.755 509.24 186.901 509.75 187.109 510.25C187.339 510.75 187.682 511.146 188.141 511.438C188.62 511.708 189.203 511.844 189.891 511.844C190.807 511.844 191.974 511.667 193.391 511.312C193.828 511.146 194.172 511.062 194.422 511.062C194.922 511.062 195.224 511.646 195.328 512.812C193.495 513.396 191.797 513.688 190.234 513.688C187.964 513.688 186.422 513.135 185.609 512.031C184.818 510.906 184.422 509.094 184.422 506.594C184.422 505.135 184.516 503.865 184.703 502.781C184.911 501.677 185.266 500.656 185.766 499.719C186.266 498.76 186.984 498.031 187.922 497.531C188.88 497.031 190.047 496.781 191.422 496.781C192.964 496.781 194.141 497.021 194.953 497.5ZM195.922 498.656L195.641 497.281C198.432 497.115 202.828 496.885 208.828 496.594C209.328 496.615 209.755 496.802 210.109 497.156C210.464 497.51 210.641 497.885 210.641 498.281C210.641 498.906 210.224 499.26 209.391 499.344L203.547 499.062C203.651 500.625 203.703 502.906 203.703 505.906C203.724 508.885 203.766 511.062 203.828 512.438C203.641 513.042 203.276 513.344 202.734 513.344C202.38 513.344 202.036 513.198 201.703 512.906C201.37 512.615 201.161 512.26 201.078 511.844C201.37 506.719 201.672 502.417 201.984 498.938L195.922 498.656ZM212.016 497.156L213.422 497.469C213.464 498.135 213.526 498.917 213.609 499.812C213.714 500.708 213.828 501.729 213.953 502.875C214.786 502.625 215.578 502.5 216.328 502.5C217.224 502.5 218.057 502.677 218.828 503.031C219.599 503.365 220.255 503.812 220.797 504.375C221.339 504.938 221.766 505.583 222.078 506.312C222.391 507.021 222.547 507.75 222.547 508.5C222.547 509.229 222.391 509.896 222.078 510.5C221.766 511.104 221.349 511.625 220.828 512.062C220.307 512.479 219.703 512.802 219.016 513.031C218.328 513.281 217.599 513.406 216.828 513.406C216.682 513.406 216.359 513.396 215.859 513.375C215.359 513.354 214.828 513.302 214.266 513.219C213.724 513.156 213.234 513.062 212.797 512.938C212.359 512.812 212.13 512.635 212.109 512.406C212.109 512.052 212.099 511.573 212.078 510.969C212.078 510.344 212.068 509.656 212.047 508.906C212.047 508.156 212.036 507.375 212.016 506.562C211.995 505.729 211.974 504.927 211.953 504.156C211.953 503.385 211.943 502.677 211.922 502.031C211.922 501.385 211.922 500.875 211.922 500.5C211.922 499.333 211.953 498.219 212.016 497.156ZM214.234 504.812L213.953 511.094C214.786 511.385 215.578 511.531 216.328 511.531C216.911 511.531 217.443 511.438 217.922 511.25C218.422 511.042 218.839 510.781 219.172 510.469C219.505 510.135 219.766 509.76 219.953 509.344C220.141 508.927 220.234 508.49 220.234 508.031C220.234 507.573 220.141 507.146 219.953 506.75C219.766 506.333 219.484 505.969 219.109 505.656C218.734 505.344 218.276 505.104 217.734 504.938C217.193 504.75 216.578 504.656 215.891 504.656C215.661 504.656 215.411 504.677 215.141 504.719C214.87 504.74 214.568 504.771 214.234 504.812ZM77.4688 533.656L77.1875 532.281C79.9792 532.115 84.375 531.885 90.375 531.594C90.875 531.615 91.3021 531.802 91.6562 532.156C92.0104 532.51 92.1875 532.885 92.1875 533.281C92.1875 533.906 91.7708 534.26 90.9375 534.344L85.0938 534.062C85.1979 535.625 85.25 537.906 85.25 540.906C85.2708 543.885 85.3125 546.062 85.375 547.438C85.1875 548.042 84.8229 548.344 84.2812 548.344C83.9271 548.344 83.5833 548.198 83.25 547.906C82.9167 547.615 82.7083 547.26 82.625 546.844C82.9167 541.719 83.2188 537.417 83.5312 533.938L77.4688 533.656ZM104.938 544.969L105.25 546.344C104.333 546.677 102.969 547.052 101.156 547.469C99.3646 547.865 98.0312 548.062 97.1562 548.062C96.2604 548.062 95.4792 547.771 94.8125 547.188C94.1458 546.583 93.6458 545.823 93.3125 544.906C92.9792 543.969 92.7292 543.052 92.5625 542.156C92.4167 541.24 92.3438 540.344 92.3438 539.469C92.3438 534.26 94.6979 531.656 99.4062 531.656C100.531 531.656 101.521 532.021 102.375 532.75C103.229 533.458 103.656 534.385 103.656 535.531C103.656 536.156 103.479 536.708 103.125 537.188C102.792 537.667 102.375 538.052 101.875 538.344C101.396 538.615 100.771 538.865 100 539.094C99.25 539.323 98.5833 539.49 98 539.594C97.4167 539.698 96.7188 539.812 95.9062 539.938C95.0938 540.062 94.5312 540.156 94.2188 540.219C94.2396 540.823 94.2708 541.354 94.3125 541.812C94.375 542.271 94.4792 542.771 94.625 543.312C94.7917 543.833 95 544.271 95.25 544.625C95.5208 544.958 95.8854 545.24 96.3438 545.469C96.8021 545.698 97.3438 545.812 97.9688 545.812C98.7188 545.812 99.6354 545.75 100.719 545.625C101.802 545.479 102.76 545.333 103.594 545.188C104.448 545.042 104.896 544.969 104.938 544.969ZM94.3438 538.281C97.1771 537.469 99.5 536.615 101.312 535.719C101.167 535.031 100.969 534.531 100.719 534.219C100.469 533.906 100.094 533.75 99.5938 533.75C98.3229 533.75 97.1667 534.188 96.125 535.062C95.1042 535.938 94.5104 537.01 94.3438 538.281ZM106.562 548.781L105.219 548.062C105.76 546.708 107.177 544.083 109.469 540.188C108.26 538.542 106.885 535.802 105.344 531.969H106.719C107.49 533.594 108.792 535.708 110.625 538.312C110.938 537.875 111.344 537.198 111.844 536.281C112.365 535.365 112.865 534.573 113.344 533.906C113.844 533.24 114.406 532.656 115.031 532.156C115.781 532.573 116.156 533.062 116.156 533.625C116.156 533.938 116.083 534.24 115.938 534.531C115.375 535.219 114.656 536.302 113.781 537.781C112.906 539.26 112.365 540.156 112.156 540.469C114.365 543.552 115.854 545.875 116.625 547.438C116.625 548.229 116.271 548.625 115.562 548.625C114.854 548.625 114.312 548.281 113.938 547.594C113.562 546.344 112.573 544.573 110.969 542.281C110.615 542.865 109.885 543.927 108.781 545.469C107.698 546.99 106.958 548.094 106.562 548.781ZM127.219 532.156L128.625 532.469L129.344 547.625C129.156 548.25 128.792 548.562 128.25 548.562C127.875 548.562 127.51 548.406 127.156 548.094C126.802 547.802 126.583 547.438 126.5 547C126.5 546.938 126.594 545.177 126.781 541.719V541.469C126.198 541.427 125.333 541.406 124.188 541.406C122.458 541.406 121.156 541.354 120.281 541.25C120.385 542.458 120.521 544.406 120.688 547.094C120.5 547.74 120.135 548.062 119.594 548.062C119.219 548.062 118.854 547.917 118.5 547.625C118.167 547.312 117.958 546.938 117.875 546.5C117.938 545.458 117.969 544.417 117.969 543.375C117.969 542.708 117.958 541.708 117.938 540.375C117.917 539.042 117.906 538.052 117.906 537.406C117.906 535.406 117.969 533.729 118.094 532.375L119.5 532.719C119.917 537.24 120.135 539.562 120.156 539.688C123.719 539.875 125.552 539.969 125.656 539.969C126.51 539.969 126.938 539.917 126.938 539.812C126.938 539.396 126.979 538.073 127.062 535.844C127.146 533.615 127.198 532.385 127.219 532.156ZM131.875 541.344C131.875 540.51 131.958 539.583 132.125 538.562C132.312 537.542 132.583 536.469 132.938 535.344C133.292 534.219 133.823 533.281 134.531 532.531C135.24 531.781 136.062 531.406 137 531.406C139 531.406 140.604 532.312 141.812 534.125C143.021 535.917 143.625 537.917 143.625 540.125C143.625 541.062 143.521 542 143.312 542.938C143.125 543.854 142.823 544.76 142.406 545.656C141.99 546.552 141.385 547.302 140.594 547.906C139.823 548.49 138.917 548.823 137.875 548.906C135.958 548.656 134.479 547.844 133.438 546.469C132.396 545.073 131.875 543.365 131.875 541.344ZM137.188 533.031C136.458 533.115 135.844 533.781 135.344 535.031C134.844 536.281 134.521 537.5 134.375 538.688C134.229 539.854 134.156 540.885 134.156 541.781C134.156 542.948 134.51 544.031 135.219 545.031C135.948 546.01 136.76 546.5 137.656 546.5C138.302 546.5 138.885 546.25 139.406 545.75C139.927 545.25 140.333 544.635 140.625 543.906C140.938 543.156 141.167 542.406 141.312 541.656C141.479 540.906 141.562 540.24 141.562 539.656C141.562 537.948 141.177 536.458 140.406 535.188C139.635 533.917 138.562 533.198 137.188 533.031ZM142.812 550.812L142.312 549.469C143 549.198 143.625 548.771 144.188 548.188C144.729 547.604 145.177 547 145.531 546.375C145.885 545.729 146.188 544.927 146.438 543.969C146.688 543.01 146.865 542.177 146.969 541.469C147.094 540.74 147.188 539.844 147.25 538.781C147.312 537.719 147.344 536.927 147.344 536.406C147.365 535.865 147.375 535.146 147.375 534.25C147.375 532.979 147.49 532.219 147.719 531.969C148.01 531.656 149.625 531.5 152.562 531.5C154.875 531.5 156.188 531.49 156.5 531.469C156.542 539.927 156.646 545.417 156.812 547.938C156.604 548.562 156.24 548.875 155.719 548.875C155.365 548.875 155.021 548.729 154.688 548.438C154.354 548.146 154.146 547.792 154.062 547.375C154.042 546.562 154.031 545.354 154.031 543.75C154.031 542.958 154.031 541.76 154.031 540.156C154.052 538.552 154.062 537.344 154.062 536.531C154.062 535.031 154.052 533.906 154.031 533.156C153.156 533.302 152.292 533.385 151.438 533.406C150.583 533.427 149.979 533.458 149.625 533.5C149.562 534.188 149.51 535.208 149.469 536.562C149.427 537.917 149.385 539.115 149.344 540.156C149.323 541.177 149.198 542.344 148.969 543.656C148.74 544.948 148.406 546.052 147.969 546.969C147.552 547.865 146.896 548.667 146 549.375C145.125 550.104 144.062 550.583 142.812 550.812ZM159.344 541.344C159.344 540.51 159.427 539.583 159.594 538.562C159.781 537.542 160.052 536.469 160.406 535.344C160.76 534.219 161.292 533.281 162 532.531C162.708 531.781 163.531 531.406 164.469 531.406C166.469 531.406 168.073 532.312 169.281 534.125C170.49 535.917 171.094 537.917 171.094 540.125C171.094 541.062 170.99 542 170.781 542.938C170.594 543.854 170.292 544.76 169.875 545.656C169.458 546.552 168.854 547.302 168.062 547.906C167.292 548.49 166.385 548.823 165.344 548.906C163.427 548.656 161.948 547.844 160.906 546.469C159.865 545.073 159.344 543.365 159.344 541.344ZM164.656 533.031C163.927 533.115 163.312 533.781 162.812 535.031C162.312 536.281 161.99 537.5 161.844 538.688C161.698 539.854 161.625 540.885 161.625 541.781C161.625 542.948 161.979 544.031 162.688 545.031C163.417 546.01 164.229 546.5 165.125 546.5C165.771 546.5 166.354 546.25 166.875 545.75C167.396 545.25 167.802 544.635 168.094 543.906C168.406 543.156 168.635 542.406 168.781 541.656C168.948 540.906 169.031 540.24 169.031 539.656C169.031 537.948 168.646 536.458 167.875 535.188C167.104 533.917 166.031 533.198 164.656 533.031ZM174.25 531.969C175.146 531.885 176.5 531.75 178.312 531.562C180.125 531.354 181.406 531.219 182.156 531.156C182.677 531.177 183.115 531.375 183.469 531.75C183.844 532.104 184.031 532.49 184.031 532.906C184.031 533.531 183.615 533.885 182.781 533.969C182.01 533.906 180.844 533.802 179.281 533.656C177.719 533.51 176.531 533.406 175.719 533.344C175.74 534.615 175.865 536.677 176.094 539.531C176.323 542.385 176.438 544.562 176.438 546.062C176.438 547.354 175.927 548 174.906 548C174.052 548 173.625 547.417 173.625 546.25C173.625 544.875 173.656 543.406 173.719 541.844C173.781 540.26 173.875 538.458 174 536.438C174.125 534.396 174.208 532.906 174.25 531.969ZM188.031 545.406C188.031 545.76 188.052 546.229 188.094 546.812C187.906 547.458 187.542 547.781 187 547.781C186.625 547.781 186.26 547.635 185.906 547.344C185.573 547.031 185.365 546.656 185.281 546.219C185.344 544.531 185.417 542.062 185.5 538.812C185.604 535.562 185.677 533.365 185.719 532.219L187.156 531.969C187.406 533.302 187.562 535.073 187.625 537.281C187.688 539.49 187.771 541.135 187.875 542.219C188.271 541.635 189.396 540.115 191.25 537.656C193.104 535.198 194.365 533.365 195.031 532.156C195.49 532.073 195.781 532.031 195.906 532.031C196.302 532.031 196.573 532.208 196.719 532.562C196.885 532.917 196.99 533.583 197.031 534.562L197.625 547.438C197.438 548.062 197.073 548.375 196.531 548.375C196.156 548.375 195.792 548.229 195.438 547.938C195.104 547.625 194.896 547.25 194.812 546.812C194.833 546.125 194.885 544.448 194.969 541.781C195.073 539.094 195.156 537.188 195.219 536.062C191.656 540.125 189.26 543.24 188.031 545.406ZM203.031 528.562L202.812 527.594C203.312 527.656 203.802 527.688 204.281 527.688C205.719 527.688 207.042 527.292 208.25 526.5C208.729 526.542 209.135 526.688 209.469 526.938C209.802 527.188 209.969 527.479 209.969 527.812C209.969 528.083 209.875 528.302 209.688 528.469C209.5 528.635 209.219 528.76 208.844 528.844C208.469 528.906 208.156 528.948 207.906 528.969C207.656 528.969 207.323 528.969 206.906 528.969C205.552 528.969 204.26 528.833 203.031 528.562ZM202.938 545.406C202.938 545.76 202.958 546.229 203 546.812C202.812 547.458 202.448 547.781 201.906 547.781C201.531 547.781 201.167 547.635 200.812 547.344C200.479 547.031 200.271 546.656 200.188 546.219C200.25 544.531 200.323 542.062 200.406 538.812C200.51 535.562 200.583 533.365 200.625 532.219L202.062 531.969C202.312 533.302 202.469 535.073 202.531 537.281C202.594 539.49 202.677 541.135 202.781 542.219C203.177 541.635 204.302 540.115 206.156 537.656C208.01 535.198 209.271 533.365 209.938 532.156C210.396 532.073 210.688 532.031 210.812 532.031C211.208 532.031 211.479 532.208 211.625 532.562C211.792 532.917 211.896 533.583 211.938 534.562L212.531 547.438C212.344 548.062 211.979 548.375 211.438 548.375C211.062 548.375 210.698 548.229 210.344 547.938C210.01 547.625 209.802 547.25 209.719 546.812C209.74 546.125 209.792 544.448 209.875 541.781C209.979 539.094 210.062 537.188 210.125 536.062C206.562 540.125 204.167 543.24 202.938 545.406Z" fill="black"/>
<g filter="url(#filter0_gn_30_10)">
<path d="M165 120.517C168.788 117.481 172.736 114.704 176.794 112.174C204.446 94.9348 237.191 89 260.354 89C284.794 89.0001 316.487 97.6864 342.479 115.954C353.843 123.941 364.364 133.971 372.685 146.088C381.167 135.084 391.56 126.177 402.794 119.174C430.446 101.935 463.191 96 486.354 96C510.794 96.0001 542.487 104.686 568.479 122.954C593.521 140.553 614.478 168.069 616.788 206H617V473H577V213C577 187.411 564.044 168.728 545.479 155.681C526.351 142.237 502.72 136 486.354 136C468.712 136 443.78 140.76 423.956 153.118C405.107 164.869 391 183.169 391 213V467H351V206C351 180.411 338.044 161.728 319.479 148.681C300.351 135.237 276.72 129 260.354 129C242.712 129 217.78 133.76 197.956 146.118C179.107 157.869 165 176.169 165 206V467H125V77H165V120.517Z" fill="#787878"/>
</g>
<defs>
<filter id="filter0_gn_30_10" x="122" y="74" width="498" height="402" filterUnits="userSpaceOnUse" color-interpolation-filters="sRGB">
<feFlood flood-opacity="0" result="BackgroundImageFix"/>
<feBlend mode="normal" in="SourceGraphic" in2="BackgroundImageFix" result="shape"/>
<feTurbulence type="fractalNoise" baseFrequency="0.3333333432674408 0.3333333432674408" numOctaves="3" seed="9316" />
<feDisplacementMap in="shape" scale="6" xChannelSelector="R" yChannelSelector="G" result="displacedImage" width="100%" height="100%" />
<feMerge result="effect1_texture_30_10">
<feMergeNode in="displacedImage"/>
</feMerge>
<feTurbulence type="fractalNoise" baseFrequency="0.5 0.5" stitchTiles="stitch" numOctaves="3" result="noise" seed="7820" />
<feColorMatrix in="noise" type="luminanceToAlpha" result="alphaNoise" />
<feComponentTransfer in="alphaNoise" result="coloredNoise1">
<feFuncA type="discrete" tableValues="1 1 1 1 1 1 1 1 1 1 1 1 1 1 1 1 1 1 1 1 1 1 1 1 1 1 1 1 1 1 1 1 1 1 1 1 1 1 1 1 1 1 1 1 1 1 1 1 1 1 1 0 0 0 0 0 0 0 0 0 0 0 0 0 0 0 0 0 0 0 0 0 0 0 0 0 0 0 0 0 0 0 0 0 0 0 0 0 0 0 0 0 0 0 0 0 0 0 0 0 "/>
</feComponentTransfer>
<feComposite operator="in" in2="effect1_texture_30_10" in="coloredNoise1" result="noise1Clipped" />
<feFlood flood-color="rgba(0, 0, 0, 0.25)" result="color1Flood" />
<feComposite operator="in" in2="noise1Clipped" in="color1Flood" result="color1" />
<feMerge result="effect2_noise_30_10">
<feMergeNode in="effect1_texture_30_10" />
<feMergeNode in="color1" />
</feMerge>
</filter>
</defs>
</svg>
