<svg width="660" height="516" viewBox="0 0 660 516" fill="none" xmlns="http://www.w3.org/2000/svg">
<path d="M174.491 29L173.084 28.6875C172.897 27.1042 172.574 25.8125 172.116 24.8125C170.386 24.6875 168.657 24.625 166.928 24.625C165.449 24.625 163.251 24.6875 160.334 24.8125C160.209 25.25 159.97 26.7708 159.616 29.375L158.272 29.25C157.855 27.0208 157.647 25.1042 157.647 23.5C157.647 23.4167 157.647 23.2708 157.647 23.0625C157.668 22.8542 157.678 22.6979 157.678 22.5938C157.699 22.5938 158.043 22.5938 158.709 22.5938C159.376 22.5729 159.72 22.5625 159.741 22.5625C160.282 21.4583 160.72 20.2708 161.053 19C161.407 17.7083 161.647 16.3333 161.772 14.875C161.897 13.3958 161.98 12.1042 162.022 11C162.064 9.875 162.084 8.44792 162.084 6.71875C162.084 4.98958 162.095 3.69792 162.116 2.84375C163.574 2.73958 166.824 2.6875 171.866 2.6875L172.553 22.2812C172.886 22.3229 173.23 22.3542 173.584 22.375C173.939 22.3958 174.282 22.4167 174.616 22.4375C174.553 22.875 174.522 23.4167 174.522 24.0625C174.522 24.3958 174.532 24.9167 174.553 25.625C174.574 26.3542 174.584 26.8958 174.584 27.25C174.584 27.9583 174.553 28.5417 174.491 29ZM162.241 22.375C162.803 22.375 163.647 22.3958 164.772 22.4375C165.897 22.4583 166.73 22.4688 167.272 22.4688C168.064 22.4688 168.886 22.4375 169.741 22.375C169.782 21.0625 169.803 19.0104 169.803 16.2188V10C169.803 7.52083 169.824 5.67708 169.866 4.46875C169.282 4.42708 168.845 4.40625 168.553 4.40625C168.074 4.40625 167.376 4.4375 166.459 4.5C165.564 4.5625 164.959 4.60417 164.647 4.625C164.584 5.5625 164.511 7.04167 164.428 9.0625C164.345 11.0625 164.261 12.6146 164.178 13.7188C164.095 14.8229 163.886 16.1979 163.553 17.8438C163.241 19.4688 162.803 20.9792 162.241 22.375ZM197.466 21.9688L197.778 23.3438C196.861 23.6771 195.497 24.0521 193.684 24.4688C191.893 24.8646 190.559 25.0625 189.684 25.0625C188.789 25.0625 188.007 24.7708 187.341 24.1875C186.674 23.5833 186.174 22.8229 185.841 21.9062C185.507 20.9688 185.257 20.0521 185.091 19.1562C184.945 18.2396 184.872 17.3438 184.872 16.4688C184.872 11.2604 187.226 8.65625 191.934 8.65625C193.059 8.65625 194.049 9.02083 194.903 9.75C195.757 10.4583 196.184 11.3854 196.184 12.5312C196.184 13.1562 196.007 13.7083 195.653 14.1875C195.32 14.6667 194.903 15.0521 194.403 15.3438C193.924 15.6146 193.299 15.8646 192.528 16.0938C191.778 16.3229 191.111 16.4896 190.528 16.5938C189.945 16.6979 189.247 16.8125 188.434 16.9375C187.622 17.0625 187.059 17.1562 186.747 17.2188C186.768 17.8229 186.799 18.3542 186.841 18.8125C186.903 19.2708 187.007 19.7708 187.153 20.3125C187.32 20.8333 187.528 21.2708 187.778 21.625C188.049 21.9583 188.414 22.2396 188.872 22.4688C189.33 22.6979 189.872 22.8125 190.497 22.8125C191.247 22.8125 192.164 22.75 193.247 22.625C194.33 22.4792 195.289 22.3333 196.122 22.1875C196.976 22.0417 197.424 21.9688 197.466 21.9688ZM186.872 15.2812C189.705 14.4688 192.028 13.6146 193.841 12.7188C193.695 12.0312 193.497 11.5312 193.247 11.2188C192.997 10.9062 192.622 10.75 192.122 10.75C190.851 10.75 189.695 11.1875 188.653 12.0625C187.632 12.9375 187.039 14.0104 186.872 15.2812ZM220.878 9.59375L223.003 9.40625C224.045 12.2188 225.107 17.4583 226.191 25.125C225.836 25.2083 225.482 25.25 225.128 25.25C224.816 25.25 224.451 25.1979 224.034 25.0938C223.743 23.9479 223.389 21.9271 222.972 19.0312C222.576 16.1354 222.222 14.0833 221.909 12.875C220.889 14.5417 219.514 17.6042 217.784 22.0625C217.639 22.0833 217.378 22.125 217.003 22.1875C216.649 22.25 216.378 22.2812 216.191 22.2812C215.961 22.2812 215.691 22.25 215.378 22.1875C215.045 21.3333 214.545 19.9688 213.878 18.0938C213.232 16.1979 212.711 14.7708 212.316 13.8125C210.316 18.9375 209.066 22.7292 208.566 25.1875L207.347 24.8438C207.451 23.2604 208.024 20.5 209.066 16.5625C210.107 12.6042 210.732 10.0833 210.941 9C211.191 9 211.472 9.03125 211.784 9.09375C212.118 9.13542 212.368 9.15625 212.534 9.15625C213.076 10.0938 213.816 11.8958 214.753 14.5625C215.691 17.2083 216.316 18.8646 216.628 19.5312C218.211 15.0312 219.628 11.7188 220.878 9.59375ZM237.072 18.3438C237.072 17.5104 237.155 16.5833 237.322 15.5625C237.509 14.5417 237.78 13.4688 238.134 12.3438C238.489 11.2188 239.02 10.2812 239.728 9.53125C240.436 8.78125 241.259 8.40625 242.197 8.40625C244.197 8.40625 245.801 9.3125 247.009 11.125C248.218 12.9167 248.822 14.9167 248.822 17.125C248.822 18.0625 248.718 19 248.509 19.9375C248.322 20.8542 248.02 21.7604 247.603 22.6562C247.186 23.5521 246.582 24.3021 245.791 24.9062C245.02 25.4896 244.114 25.8229 243.072 25.9062C241.155 25.6562 239.676 24.8438 238.634 23.4688C237.593 22.0729 237.072 20.3646 237.072 18.3438ZM242.384 10.0312C241.655 10.1146 241.041 10.7812 240.541 12.0312C240.041 13.2812 239.718 14.5 239.572 15.6875C239.426 16.8542 239.353 17.8854 239.353 18.7812C239.353 19.9479 239.707 21.0312 240.416 22.0312C241.145 23.0104 241.957 23.5 242.853 23.5C243.499 23.5 244.082 23.25 244.603 22.75C245.124 22.25 245.53 21.6354 245.822 20.9062C246.134 20.1562 246.364 19.4062 246.509 18.6562C246.676 17.9062 246.759 17.2396 246.759 16.6562C246.759 14.9479 246.374 13.4583 245.603 12.1875C244.832 10.9167 243.759 10.1979 242.384 10.0312ZM272.141 24.2188L272.234 25.5938C271.734 25.7188 271.38 25.7812 271.172 25.7812C270.38 25.7812 269.661 25.5208 269.016 25C268.37 24.4792 267.839 23.8438 267.422 23.0938C267.005 22.3438 266.609 21.5938 266.234 20.8438C265.88 20.0938 265.495 19.4583 265.078 18.9375C264.661 18.4167 264.234 18.1562 263.797 18.1562C263.63 18.1562 263.474 18.1875 263.328 18.25C263.411 19.5 263.557 21.5208 263.766 24.3125C263.578 24.9583 263.214 25.2812 262.672 25.2812C262.297 25.2812 261.932 25.1354 261.578 24.8438C261.245 24.5312 261.036 24.1562 260.953 23.7188C261.036 20.2188 261.078 16.9271 261.078 13.8438C261.078 11.5729 261.172 9.77083 261.359 8.4375L262.766 8.9375C262.932 9.75 263.026 10.9167 263.047 12.4375C263.068 13.9375 263.089 14.8646 263.109 15.2188C263.734 15.1146 264.276 14.7917 264.734 14.25C265.214 13.7083 265.599 13.0938 265.891 12.4062C266.203 11.7188 266.526 11.0417 266.859 10.375C267.193 9.70833 267.62 9.14583 268.141 8.6875C268.682 8.22917 269.318 8 270.047 8C270.422 8 271.005 8.125 271.797 8.375L271.672 9.4375C271.547 9.41667 271.38 9.40625 271.172 9.40625C270.339 9.40625 269.609 9.76042 268.984 10.4688C268.38 11.1562 267.922 11.9271 267.609 12.7812C267.318 13.6146 266.943 14.4167 266.484 15.1875C266.026 15.9583 265.526 16.4062 264.984 16.5312C265.755 16.7188 266.411 17.2396 266.953 18.0938C267.516 18.9479 267.932 19.8333 268.203 20.75C268.495 21.6458 268.911 22.4688 269.453 23.2188C269.995 23.9479 270.661 24.3125 271.453 24.3125C271.661 24.3125 271.891 24.2812 272.141 24.2188ZM283.491 8.5625L285.241 8.875C285.241 9.3125 285.251 9.63542 285.272 9.84375C286.418 9.11458 287.574 8.75 288.741 8.75C290.636 8.75 292.116 9.5625 293.178 11.1875C294.241 12.8125 294.772 14.6562 294.772 16.7188C294.772 17.7604 294.689 18.7604 294.522 19.7188C294.376 20.6562 294.105 21.625 293.709 22.625C293.314 23.6042 292.699 24.3958 291.866 25C291.053 25.5833 290.064 25.875 288.897 25.875C287.793 25.875 286.73 25.5833 285.709 25C285.793 28.6458 285.866 31.3542 285.928 33.125C285.741 33.7708 285.376 34.0938 284.834 34.0938C284.459 34.0938 284.095 33.9375 283.741 33.625C283.407 33.3333 283.199 32.9688 283.116 32.5312L283.491 8.5625ZM285.522 11.875L285.616 21.9688C285.866 22.4688 286.251 22.875 286.772 23.1875C287.293 23.4792 287.866 23.625 288.491 23.625C289.303 23.625 289.991 23.3646 290.553 22.8438C291.136 22.3229 291.543 21.6354 291.772 20.7812C292.022 19.9062 292.189 19.0938 292.272 18.3438C292.376 17.5938 292.428 16.8021 292.428 15.9688C292.428 12.4271 291.23 10.6562 288.834 10.6562C288.064 10.6562 287.345 10.7708 286.678 11C286.032 11.2083 285.647 11.5 285.522 11.875ZM308.028 11.5L307.403 9.90625C307.945 9.36458 308.632 8.9375 309.466 8.625C310.299 8.29167 311.122 8.125 311.934 8.125C315.455 8.125 317.216 11.1667 317.216 17.25C317.216 18.0833 317.164 19.3125 317.059 20.9375C316.976 22.5625 316.934 23.7812 316.934 24.5938C316.768 25.2396 316.445 25.5625 315.966 25.5625C315.591 25.5625 315.247 25.375 314.934 25C314.622 24.625 314.466 24.2083 314.466 23.75C314.466 23.6042 314.476 23.5 314.497 23.4375C313.205 24.6875 311.83 25.3125 310.372 25.3125C309.268 25.3125 308.299 24.9167 307.466 24.125C306.653 23.3125 306.247 22.3333 306.247 21.1875C306.247 19.25 306.997 17.5 308.497 15.9375C310.018 14.375 311.736 13.5938 313.653 13.5938C313.736 13.5938 313.82 13.6042 313.903 13.625C313.986 13.625 314.08 13.6354 314.184 13.6562C314.309 13.6771 314.403 13.6875 314.466 13.6875C314.299 11.25 313.33 10.0312 311.559 10.0312C310.518 10.0312 309.341 10.5208 308.028 11.5ZM314.559 21.2812C314.601 19.8229 314.622 18.7188 314.622 17.9688C314.622 17.3438 314.601 16.4688 314.559 15.3438H314.309C312.83 15.3646 311.476 15.9167 310.247 17C309.039 18.0833 308.434 19.3958 308.434 20.9375C308.434 21.6042 308.632 22.1354 309.028 22.5312C309.445 22.9271 309.945 23.125 310.528 23.125C311.445 23.125 312.789 22.5104 314.559 21.2812ZM328.347 10.6562L328.066 9.28125C330.857 9.11458 335.253 8.88542 341.253 8.59375C341.753 8.61458 342.18 8.80208 342.534 9.15625C342.889 9.51042 343.066 9.88542 343.066 10.2812C343.066 10.9062 342.649 11.2604 341.816 11.3438L335.972 11.0625C336.076 12.625 336.128 14.9062 336.128 17.9062C336.149 20.8854 336.191 23.0625 336.253 24.4375C336.066 25.0417 335.701 25.3438 335.159 25.3438C334.805 25.3438 334.461 25.1979 334.128 24.9062C333.795 24.6146 333.586 24.2604 333.503 23.8438C333.795 18.7188 334.097 14.4167 334.409 10.9375L328.347 10.6562ZM356.697 22.4062C356.697 22.7604 356.718 23.2292 356.759 23.8125C356.572 24.4583 356.207 24.7812 355.666 24.7812C355.291 24.7812 354.926 24.6354 354.572 24.3438C354.239 24.0312 354.03 23.6562 353.947 23.2188C354.009 21.5312 354.082 19.0625 354.166 15.8125C354.27 12.5625 354.343 10.3646 354.384 9.21875L355.822 8.96875C356.072 10.3021 356.228 12.0729 356.291 14.2812C356.353 16.4896 356.436 18.1354 356.541 19.2188C356.936 18.6354 358.061 17.1146 359.916 14.6562C361.77 12.1979 363.03 10.3646 363.697 9.15625C364.155 9.07292 364.447 9.03125 364.572 9.03125C364.968 9.03125 365.239 9.20833 365.384 9.5625C365.551 9.91667 365.655 10.5833 365.697 11.5625L366.291 24.4375C366.103 25.0625 365.739 25.375 365.197 25.375C364.822 25.375 364.457 25.2292 364.103 24.9375C363.77 24.625 363.561 24.25 363.478 23.8125C363.499 23.125 363.551 21.4479 363.634 18.7812C363.739 16.0938 363.822 14.1875 363.884 13.0625C360.322 17.125 357.926 20.2396 356.697 22.4062ZM380.297 17.2812L380.172 15.5312C380.234 15.5312 380.328 15.5417 380.453 15.5625C380.599 15.5625 380.703 15.5625 380.766 15.5625C382.87 15.5625 383.922 14.6458 383.922 12.8125C383.693 11.2083 382.807 10.4062 381.266 10.4062C380.682 10.4062 379.828 10.5729 378.703 10.9062L378.141 10C379.016 9.1875 380.266 8.78125 381.891 8.78125C383.036 8.78125 383.995 9.07292 384.766 9.65625C385.536 10.2396 385.922 11.0938 385.922 12.2188C385.922 12.9062 385.786 13.5833 385.516 14.25C385.245 14.8958 384.891 15.3854 384.453 15.7188C385.245 15.8854 385.859 16.4271 386.297 17.3438C386.755 18.2396 386.984 19.25 386.984 20.375C386.984 21.8333 386.516 23.1042 385.578 24.1875C384.641 25.2708 383.432 25.8125 381.953 25.8125C381.224 25.8125 380.349 25.6042 379.328 25.1875C378.307 24.7708 377.797 24.25 377.797 23.625C377.797 23.1875 378.078 22.9688 378.641 22.9688C379.016 22.9688 379.505 23.1458 380.109 23.5C380.714 23.8333 381.214 24 381.609 24C382.484 24 383.255 23.6146 383.922 22.8438C384.589 22.0729 384.922 21.2188 384.922 20.2812C384.922 19.2812 384.568 18.5312 383.859 18.0312C383.172 17.5104 382.286 17.25 381.203 17.25C380.786 17.25 380.484 17.2604 380.297 17.2812ZM400.272 11.5L399.647 9.90625C400.189 9.36458 400.876 8.9375 401.709 8.625C402.543 8.29167 403.366 8.125 404.178 8.125C407.699 8.125 409.459 11.1667 409.459 17.25C409.459 18.0833 409.407 19.3125 409.303 20.9375C409.22 22.5625 409.178 23.7812 409.178 24.5938C409.011 25.2396 408.689 25.5625 408.209 25.5625C407.834 25.5625 407.491 25.375 407.178 25C406.866 24.625 406.709 24.2083 406.709 23.75C406.709 23.6042 406.72 23.5 406.741 23.4375C405.449 24.6875 404.074 25.3125 402.616 25.3125C401.511 25.3125 400.543 24.9167 399.709 24.125C398.897 23.3125 398.491 22.3333 398.491 21.1875C398.491 19.25 399.241 17.5 400.741 15.9375C402.261 14.375 403.98 13.5938 405.897 13.5938C405.98 13.5938 406.064 13.6042 406.147 13.625C406.23 13.625 406.324 13.6354 406.428 13.6562C406.553 13.6771 406.647 13.6875 406.709 13.6875C406.543 11.25 405.574 10.0312 403.803 10.0312C402.761 10.0312 401.584 10.5208 400.272 11.5ZM406.803 21.2812C406.845 19.8229 406.866 18.7188 406.866 17.9688C406.866 17.3438 406.845 16.4688 406.803 15.3438H406.553C405.074 15.3646 403.72 15.9167 402.491 17C401.282 18.0833 400.678 19.3958 400.678 20.9375C400.678 21.6042 400.876 22.1354 401.272 22.5312C401.689 22.9271 402.189 23.125 402.772 23.125C403.689 23.125 405.032 22.5104 406.803 21.2812ZM421.591 25.0938C421.653 23.9479 421.695 21.3021 421.716 17.1562C421.736 12.9896 421.82 10.0938 421.966 8.46875L423.372 8.78125C423.518 10.4479 423.622 13.1146 423.684 16.7812C423.768 20.4479 423.82 22.4479 423.841 22.7812C424.153 22.7604 424.664 22.75 425.372 22.75C425.872 22.75 426.601 22.7604 427.559 22.7812C428.539 22.8021 429.226 22.8125 429.622 22.8125H430.497C430.559 21.5208 430.632 19.25 430.716 16C430.799 12.7292 430.882 10.3125 430.966 8.75L432.372 9.0625C432.455 10.6875 432.497 13.2604 432.497 16.7812C432.518 20.3021 432.528 22.3125 432.528 22.8125H434.872C434.851 23.3958 434.799 24.4688 434.716 26.0312C434.632 27.5938 434.58 28.7604 434.559 29.5312L433.059 29.2812L432.434 25.0938C429.726 25.1771 427.705 25.2188 426.372 25.2188C424.601 25.2188 423.007 25.1771 421.591 25.0938ZM449.128 22.4062C449.128 22.7604 449.149 23.2292 449.191 23.8125C449.003 24.4583 448.639 24.7812 448.097 24.7812C447.722 24.7812 447.357 24.6354 447.003 24.3438C446.67 24.0312 446.461 23.6562 446.378 23.2188C446.441 21.5312 446.514 19.0625 446.597 15.8125C446.701 12.5625 446.774 10.3646 446.816 9.21875L448.253 8.96875C448.503 10.3021 448.659 12.0729 448.722 14.2812C448.784 16.4896 448.868 18.1354 448.972 19.2188C449.368 18.6354 450.493 17.1146 452.347 14.6562C454.201 12.1979 455.461 10.3646 456.128 9.15625C456.586 9.07292 456.878 9.03125 457.003 9.03125C457.399 9.03125 457.67 9.20833 457.816 9.5625C457.982 9.91667 458.086 10.5833 458.128 11.5625L458.722 24.4375C458.534 25.0625 458.17 25.375 457.628 25.375C457.253 25.375 456.889 25.2292 456.534 24.9375C456.201 24.625 455.993 24.25 455.909 23.8125C455.93 23.125 455.982 21.4479 456.066 18.7812C456.17 16.0938 456.253 14.1875 456.316 13.0625C452.753 17.125 450.357 20.2396 449.128 22.4062ZM481.603 8.78125L482.072 25.5625C481.864 26.1875 481.509 26.5 481.009 26.5C480.655 26.5 480.301 26.3542 479.947 26.0625C479.614 25.7708 479.405 25.4167 479.322 25L479.634 18.2188C478.759 18.7812 477.853 19.0729 476.916 19.0938C476.124 21.6979 475.124 23.6042 473.916 24.8125C472.728 26.0208 470.822 26.9896 468.197 27.7188L467.697 26.375C471.593 25.3958 473.811 22.8229 474.353 18.6562C473.353 18.2396 472.52 17.6042 471.853 16.75C471.207 15.8958 470.884 14.9167 470.884 13.8125C470.884 11.6042 471.447 10.1354 472.572 9.40625C473.697 8.67708 475.478 8.3125 477.916 8.3125C479.186 8.3125 480.416 8.46875 481.603 8.78125ZM479.884 15.5938L479.728 10.6562C478.999 10.4271 477.926 10.3125 476.509 10.3125C475.509 10.3125 474.655 10.5417 473.947 11C473.239 11.4375 472.884 12.1562 472.884 13.1562C472.884 14.2812 473.332 15.25 474.228 16.0625C475.124 16.8542 476.103 17.25 477.166 17.25C478.416 17.25 479.322 16.6979 479.884 15.5938Z" fill="black"/>
<path d="M471.75 460.531C471.75 459.823 471.75 459.292 471.75 458.938C471.75 458.562 471.76 458 471.781 457.25C471.823 456.5 471.865 455.906 471.906 455.469C471.969 455.031 472.052 454.469 472.156 453.781C472.26 453.073 472.396 452.51 472.562 452.094C472.729 451.656 472.917 451.167 473.125 450.625C473.354 450.083 473.635 449.646 473.969 449.312C474.302 448.979 474.667 448.667 475.062 448.375C475.458 448.062 475.927 447.833 476.469 447.688C477.01 447.542 477.604 447.469 478.25 447.469C479.542 447.469 480.667 447.729 481.625 448.25C482.583 448.75 483.333 449.385 483.875 450.156C484.417 450.927 484.844 451.875 485.156 453C485.49 454.125 485.698 455.198 485.781 456.219C485.885 457.24 485.938 458.365 485.938 459.594C485.938 460.427 485.917 461.177 485.875 461.844C485.854 462.51 485.792 463.271 485.688 464.125C485.604 464.958 485.469 465.698 485.281 466.344C485.115 466.99 484.875 467.646 484.562 468.312C484.25 468.958 483.875 469.5 483.438 469.938C483.021 470.354 482.49 470.698 481.844 470.969C481.198 471.24 480.479 471.375 479.688 471.375C478.396 471.375 477.281 471.219 476.344 470.906C475.427 470.594 474.667 470.156 474.062 469.594C473.479 469.031 473.01 468.292 472.656 467.375C472.323 466.458 472.083 465.458 471.938 464.375C471.812 463.292 471.75 462.01 471.75 460.531ZM483.688 460.781C483.688 459.76 483.604 458.698 483.438 457.594C483.292 456.49 483.031 455.302 482.656 454.031C482.302 452.76 481.729 451.729 480.938 450.938C480.146 450.125 479.198 449.719 478.094 449.719C477.26 449.719 476.521 450.281 475.875 451.406C475.25 452.51 474.802 453.76 474.531 455.156C474.26 456.531 474.125 457.833 474.125 459.062C474.125 459.917 474.125 460.573 474.125 461.031C474.146 461.469 474.188 462.104 474.25 462.938C474.312 463.75 474.396 464.396 474.5 464.875C474.625 465.354 474.812 465.906 475.062 466.531C475.312 467.156 475.604 467.646 475.938 468C476.292 468.333 476.74 468.635 477.281 468.906C477.844 469.156 478.469 469.292 479.156 469.312C480.677 469.229 481.812 468.375 482.562 466.75C483.312 465.125 483.688 463.135 483.688 460.781ZM488.844 454.562L490.594 454.875C490.594 455.312 490.604 455.635 490.625 455.844C491.771 455.115 492.927 454.75 494.094 454.75C495.99 454.75 497.469 455.562 498.531 457.188C499.594 458.812 500.125 460.656 500.125 462.719C500.125 463.76 500.042 464.76 499.875 465.719C499.729 466.656 499.458 467.625 499.062 468.625C498.667 469.604 498.052 470.396 497.219 471C496.406 471.583 495.417 471.875 494.25 471.875C493.146 471.875 492.083 471.583 491.062 471C491.146 474.646 491.219 477.354 491.281 479.125C491.094 479.771 490.729 480.094 490.188 480.094C489.812 480.094 489.448 479.938 489.094 479.625C488.76 479.333 488.552 478.969 488.469 478.531L488.844 454.562ZM490.875 457.875L490.969 467.969C491.219 468.469 491.604 468.875 492.125 469.188C492.646 469.479 493.219 469.625 493.844 469.625C494.656 469.625 495.344 469.365 495.906 468.844C496.49 468.323 496.896 467.635 497.125 466.781C497.375 465.906 497.542 465.094 497.625 464.344C497.729 463.594 497.781 462.802 497.781 461.969C497.781 458.427 496.583 456.656 494.188 456.656C493.417 456.656 492.698 456.771 492.031 457C491.385 457.208 491 457.5 490.875 457.875ZM503.281 454.969C504.177 454.885 505.531 454.75 507.344 454.562C509.156 454.354 510.438 454.219 511.188 454.156C511.708 454.177 512.146 454.375 512.5 454.75C512.875 455.104 513.062 455.49 513.062 455.906C513.062 456.531 512.646 456.885 511.812 456.969C511.042 456.906 509.875 456.802 508.312 456.656C506.75 456.51 505.562 456.406 504.75 456.344C504.771 457.615 504.896 459.677 505.125 462.531C505.354 465.385 505.469 467.562 505.469 469.062C505.469 470.354 504.958 471 503.938 471C503.083 471 502.656 470.417 502.656 469.25C502.656 467.875 502.688 466.406 502.75 464.844C502.812 463.26 502.906 461.458 503.031 459.438C503.156 457.396 503.24 455.906 503.281 454.969ZM515.438 457.5L514.812 455.906C515.354 455.365 516.042 454.938 516.875 454.625C517.708 454.292 518.531 454.125 519.344 454.125C522.865 454.125 524.625 457.167 524.625 463.25C524.625 464.083 524.573 465.312 524.469 466.938C524.385 468.562 524.344 469.781 524.344 470.594C524.177 471.24 523.854 471.562 523.375 471.562C523 471.562 522.656 471.375 522.344 471C522.031 470.625 521.875 470.208 521.875 469.75C521.875 469.604 521.885 469.5 521.906 469.438C520.615 470.688 519.24 471.312 517.781 471.312C516.677 471.312 515.708 470.917 514.875 470.125C514.062 469.312 513.656 468.333 513.656 467.188C513.656 465.25 514.406 463.5 515.906 461.938C517.427 460.375 519.146 459.594 521.062 459.594C521.146 459.594 521.229 459.604 521.312 459.625C521.396 459.625 521.49 459.635 521.594 459.656C521.719 459.677 521.812 459.688 521.875 459.688C521.708 457.25 520.74 456.031 518.969 456.031C517.927 456.031 516.75 456.521 515.438 457.5ZM521.969 467.281C522.01 465.823 522.031 464.719 522.031 463.969C522.031 463.344 522.01 462.469 521.969 461.344H521.719C520.24 461.365 518.885 461.917 517.656 463C516.448 464.083 515.844 465.396 515.844 466.938C515.844 467.604 516.042 468.135 516.438 468.531C516.854 468.927 517.354 469.125 517.938 469.125C518.854 469.125 520.198 468.51 521.969 467.281ZM536.5 455.156L537.906 455.469L538.625 470.625C538.438 471.25 538.073 471.562 537.531 471.562C537.156 471.562 536.792 471.406 536.438 471.094C536.083 470.802 535.865 470.438 535.781 470C535.781 469.938 535.875 468.177 536.062 464.719V464.469C535.479 464.427 534.615 464.406 533.469 464.406C531.74 464.406 530.438 464.354 529.562 464.25C529.667 465.458 529.802 467.406 529.969 470.094C529.781 470.74 529.417 471.062 528.875 471.062C528.5 471.062 528.135 470.917 527.781 470.625C527.448 470.312 527.24 469.938 527.156 469.5C527.219 468.458 527.25 467.417 527.25 466.375C527.25 465.708 527.24 464.708 527.219 463.375C527.198 462.042 527.188 461.052 527.188 460.406C527.188 458.406 527.25 456.729 527.375 455.375L528.781 455.719C529.198 460.24 529.417 462.562 529.438 462.688C533 462.875 534.833 462.969 534.938 462.969C535.792 462.969 536.219 462.917 536.219 462.812C536.219 462.396 536.26 461.073 536.344 458.844C536.427 456.615 536.479 455.385 536.5 455.156ZM543.906 468.406C543.906 468.76 543.927 469.229 543.969 469.812C543.781 470.458 543.417 470.781 542.875 470.781C542.5 470.781 542.135 470.635 541.781 470.344C541.448 470.031 541.24 469.656 541.156 469.219C541.219 467.531 541.292 465.062 541.375 461.812C541.479 458.562 541.552 456.365 541.594 455.219L543.031 454.969C543.281 456.302 543.438 458.073 543.5 460.281C543.562 462.49 543.646 464.135 543.75 465.219C544.146 464.635 545.271 463.115 547.125 460.656C548.979 458.198 550.24 456.365 550.906 455.156C551.365 455.073 551.656 455.031 551.781 455.031C552.177 455.031 552.448 455.208 552.594 455.562C552.76 455.917 552.865 456.583 552.906 457.562L553.5 470.438C553.312 471.062 552.948 471.375 552.406 471.375C552.031 471.375 551.667 471.229 551.312 470.938C550.979 470.625 550.771 470.25 550.688 469.812C550.708 469.125 550.76 467.448 550.844 464.781C550.948 462.094 551.031 460.188 551.094 459.062C547.531 463.125 545.135 466.24 543.906 468.406ZM557.906 463.281L557.781 461.531C557.844 461.531 557.938 461.542 558.062 461.562C558.208 461.562 558.312 461.562 558.375 461.562C560.479 461.562 561.531 460.646 561.531 458.812C561.302 457.208 560.417 456.406 558.875 456.406C558.292 456.406 557.438 456.573 556.312 456.906L555.75 456C556.625 455.188 557.875 454.781 559.5 454.781C560.646 454.781 561.604 455.073 562.375 455.656C563.146 456.24 563.531 457.094 563.531 458.219C563.531 458.906 563.396 459.583 563.125 460.25C562.854 460.896 562.5 461.385 562.062 461.719C562.854 461.885 563.469 462.427 563.906 463.344C564.365 464.24 564.594 465.25 564.594 466.375C564.594 467.833 564.125 469.104 563.188 470.188C562.25 471.271 561.042 471.812 559.562 471.812C558.833 471.812 557.958 471.604 556.938 471.188C555.917 470.771 555.406 470.25 555.406 469.625C555.406 469.188 555.688 468.969 556.25 468.969C556.625 468.969 557.115 469.146 557.719 469.5C558.323 469.833 558.823 470 559.219 470C560.094 470 560.865 469.615 561.531 468.844C562.198 468.073 562.531 467.219 562.531 466.281C562.531 465.281 562.177 464.531 561.469 464.031C560.781 463.51 559.896 463.25 558.812 463.25C558.396 463.25 558.094 463.26 557.906 463.281ZM568.281 457.5L567.656 455.906C568.198 455.365 568.885 454.938 569.719 454.625C570.552 454.292 571.375 454.125 572.188 454.125C575.708 454.125 577.469 457.167 577.469 463.25C577.469 464.083 577.417 465.312 577.312 466.938C577.229 468.562 577.188 469.781 577.188 470.594C577.021 471.24 576.698 471.562 576.219 471.562C575.844 471.562 575.5 471.375 575.188 471C574.875 470.625 574.719 470.208 574.719 469.75C574.719 469.604 574.729 469.5 574.75 469.438C573.458 470.688 572.083 471.312 570.625 471.312C569.521 471.312 568.552 470.917 567.719 470.125C566.906 469.312 566.5 468.333 566.5 467.188C566.5 465.25 567.25 463.5 568.75 461.938C570.271 460.375 571.99 459.594 573.906 459.594C573.99 459.594 574.073 459.604 574.156 459.625C574.24 459.625 574.333 459.635 574.438 459.656C574.562 459.677 574.656 459.688 574.719 459.688C574.552 457.25 573.583 456.031 571.812 456.031C570.771 456.031 569.594 456.521 568.281 457.5ZM574.812 467.281C574.854 465.823 574.875 464.719 574.875 463.969C574.875 463.344 574.854 462.469 574.812 461.344H574.562C573.083 461.365 571.729 461.917 570.5 463C569.292 464.083 568.688 465.396 568.688 466.938C568.688 467.604 568.885 468.135 569.281 468.531C569.698 468.927 570.198 469.125 570.781 469.125C571.698 469.125 573.042 468.51 574.812 467.281ZM580 471.094C580.062 469.948 580.104 467.302 580.125 463.156C580.146 458.99 580.229 456.094 580.375 454.469L581.781 454.781C581.927 456.448 582.031 459.115 582.094 462.781C582.177 466.448 582.229 468.448 582.25 468.781C582.562 468.76 583.073 468.75 583.781 468.75C584.281 468.75 585.01 468.76 585.969 468.781C586.948 468.802 587.635 468.812 588.031 468.812H588.906C588.969 467.521 589.042 465.25 589.125 462C589.208 458.729 589.292 456.312 589.375 454.75L590.781 455.062C590.865 456.688 590.906 459.26 590.906 462.781C590.927 466.302 590.938 468.312 590.938 468.812H593.281C593.26 469.396 593.208 470.469 593.125 472.031C593.042 473.594 592.99 474.76 592.969 475.531L591.469 475.281L590.844 471.094C588.135 471.177 586.115 471.219 584.781 471.219C583.01 471.219 581.417 471.177 580 471.094ZM597.938 468.406C597.938 468.76 597.958 469.229 598 469.812C597.812 470.458 597.448 470.781 596.906 470.781C596.531 470.781 596.167 470.635 595.812 470.344C595.479 470.031 595.271 469.656 595.188 469.219C595.25 467.531 595.323 465.062 595.406 461.812C595.51 458.562 595.583 456.365 595.625 455.219L597.062 454.969C597.312 456.302 597.469 458.073 597.531 460.281C597.594 462.49 597.677 464.135 597.781 465.219C598.177 464.635 599.302 463.115 601.156 460.656C603.01 458.198 604.271 456.365 604.938 455.156C605.396 455.073 605.688 455.031 605.812 455.031C606.208 455.031 606.479 455.208 606.625 455.562C606.792 455.917 606.896 456.583 606.938 457.562L607.531 470.438C607.344 471.062 606.979 471.375 606.438 471.375C606.062 471.375 605.698 471.229 605.344 470.938C605.01 470.625 604.802 470.25 604.719 469.812C604.74 469.125 604.792 467.448 604.875 464.781C604.979 462.094 605.062 460.188 605.125 459.062C601.562 463.125 599.167 466.24 597.938 468.406ZM620.812 454.781L621.281 471.562C621.073 472.188 620.719 472.5 620.219 472.5C619.865 472.5 619.51 472.354 619.156 472.062C618.823 471.771 618.615 471.417 618.531 471L618.844 464.219C617.969 464.781 617.062 465.073 616.125 465.094C615.333 467.698 614.333 469.604 613.125 470.812C611.938 472.021 610.031 472.99 607.406 473.719L606.906 472.375C610.802 471.396 613.021 468.823 613.562 464.656C612.562 464.24 611.729 463.604 611.062 462.75C610.417 461.896 610.094 460.917 610.094 459.812C610.094 457.604 610.656 456.135 611.781 455.406C612.906 454.677 614.688 454.312 617.125 454.312C618.396 454.312 619.625 454.469 620.812 454.781ZM619.094 461.594L618.938 456.656C618.208 456.427 617.135 456.312 615.719 456.312C614.719 456.312 613.865 456.542 613.156 457C612.448 457.438 612.094 458.156 612.094 459.156C612.094 460.281 612.542 461.25 613.438 462.062C614.333 462.854 615.312 463.25 616.375 463.25C617.625 463.25 618.531 462.698 619.094 461.594ZM511.188 491.656L510.906 490.281C513.698 490.115 518.094 489.885 524.094 489.594C524.594 489.615 525.021 489.802 525.375 490.156C525.729 490.51 525.906 490.885 525.906 491.281C525.906 491.906 525.49 492.26 524.656 492.344L518.812 492.062C518.917 493.625 518.969 495.906 518.969 498.906C518.99 501.885 519.031 504.062 519.094 505.438C518.906 506.042 518.542 506.344 518 506.344C517.646 506.344 517.302 506.198 516.969 505.906C516.635 505.615 516.427 505.26 516.344 504.844C516.635 499.719 516.938 495.417 517.25 491.938L511.188 491.656ZM527.562 489.562L529.312 489.875C529.312 490.312 529.323 490.635 529.344 490.844C530.49 490.115 531.646 489.75 532.812 489.75C534.708 489.75 536.188 490.562 537.25 492.188C538.312 493.812 538.844 495.656 538.844 497.719C538.844 498.76 538.76 499.76 538.594 500.719C538.448 501.656 538.177 502.625 537.781 503.625C537.385 504.604 536.771 505.396 535.938 506C535.125 506.583 534.135 506.875 532.969 506.875C531.865 506.875 530.802 506.583 529.781 506C529.865 509.646 529.938 512.354 530 514.125C529.812 514.771 529.448 515.094 528.906 515.094C528.531 515.094 528.167 514.938 527.812 514.625C527.479 514.333 527.271 513.969 527.188 513.531L527.562 489.562ZM529.594 492.875L529.688 502.969C529.938 503.469 530.323 503.875 530.844 504.188C531.365 504.479 531.938 504.625 532.562 504.625C533.375 504.625 534.062 504.365 534.625 503.844C535.208 503.323 535.615 502.635 535.844 501.781C536.094 500.906 536.26 500.094 536.344 499.344C536.448 498.594 536.5 497.802 536.5 496.969C536.5 493.427 535.302 491.656 532.906 491.656C532.135 491.656 531.417 491.771 530.75 492C530.104 492.208 529.719 492.5 529.594 492.875ZM543.625 515.25L541.688 514.156C542.542 512.677 544.052 509.865 546.219 505.719C544.531 504.219 543.24 501.948 542.344 498.906C541.448 495.865 540.906 492.823 540.719 489.781L542.531 489.875C542.635 490.375 542.854 491.521 543.188 493.312C543.542 495.083 543.823 496.396 544.031 497.25C544.24 498.104 544.604 499.177 545.125 500.469C545.667 501.74 546.281 502.812 546.969 503.688C549.865 498.125 551.312 493.562 551.312 490V489.656C552.396 489.823 553.208 490.021 553.75 490.25C553.417 492.438 552.896 494.667 552.188 496.938C551.479 499.208 550.594 501.5 549.531 503.812C548.469 506.104 547.521 508.031 546.688 509.594C545.875 511.156 544.854 513.042 543.625 515.25ZM554.031 510.094L552.625 509.781C552.625 509.552 552.583 508.875 552.5 507.75C552.417 506.625 552.375 505.812 552.375 505.312C552.375 504.896 552.406 504.448 552.469 503.969H554.5C554.604 503.615 554.771 503.083 555 502.375C555.25 501.667 555.417 501.167 555.5 500.875C555.583 500.583 555.698 500.156 555.844 499.594C556.01 499.01 556.115 498.521 556.156 498.125C556.219 497.708 556.271 497.198 556.312 496.594C556.375 495.99 556.406 495.354 556.406 494.688C556.406 493.125 556.344 491.365 556.219 489.406C557.385 489.469 558.615 489.51 559.906 489.531C561.219 489.552 562.292 489.583 563.125 489.625C563.958 489.667 564.812 489.76 565.688 489.906C565.75 491.323 565.812 493.656 565.875 496.906C565.958 500.135 566.031 502.458 566.094 503.875H568.531V504.812C568.531 505.354 568.542 506.125 568.562 507.125C568.604 508.125 568.625 508.792 568.625 509.125C568.625 509.75 568.604 510.229 568.562 510.562L567.156 510.25C567.073 509.958 566.99 509.583 566.906 509.125C566.844 508.688 566.771 508.208 566.688 507.688C566.604 507.167 566.542 506.792 566.5 506.562C565.312 506.5 563.417 506.375 560.812 506.188C558.229 506 556.208 505.875 554.75 505.812L554.031 510.094ZM558.844 491.375C558.823 491.688 558.802 492.344 558.781 493.344C558.76 494.323 558.729 495.073 558.688 495.594C558.667 496.115 558.604 496.844 558.5 497.781C558.417 498.698 558.302 499.469 558.156 500.094C558.01 500.698 557.792 501.365 557.5 502.094C557.229 502.802 556.906 503.417 556.531 503.938H563.375L564 491.625C563.708 491.604 562.938 491.573 561.688 491.531C560.458 491.49 559.51 491.438 558.844 491.375ZM571.656 492.5L571.031 490.906C571.573 490.365 572.26 489.938 573.094 489.625C573.927 489.292 574.75 489.125 575.562 489.125C579.083 489.125 580.844 492.167 580.844 498.25C580.844 499.083 580.792 500.312 580.688 501.938C580.604 503.562 580.562 504.781 580.562 505.594C580.396 506.24 580.073 506.562 579.594 506.562C579.219 506.562 578.875 506.375 578.562 506C578.25 505.625 578.094 505.208 578.094 504.75C578.094 504.604 578.104 504.5 578.125 504.438C576.833 505.688 575.458 506.312 574 506.312C572.896 506.312 571.927 505.917 571.094 505.125C570.281 504.312 569.875 503.333 569.875 502.188C569.875 500.25 570.625 498.5 572.125 496.938C573.646 495.375 575.365 494.594 577.281 494.594C577.365 494.594 577.448 494.604 577.531 494.625C577.615 494.625 577.708 494.635 577.812 494.656C577.938 494.677 578.031 494.688 578.094 494.688C577.927 492.25 576.958 491.031 575.188 491.031C574.146 491.031 572.969 491.521 571.656 492.5ZM578.188 502.281C578.229 500.823 578.25 499.719 578.25 498.969C578.25 498.344 578.229 497.469 578.188 496.344H577.938C576.458 496.365 575.104 496.917 573.875 498C572.667 499.083 572.062 500.396 572.062 501.938C572.062 502.604 572.26 503.135 572.656 503.531C573.073 503.927 573.573 504.125 574.156 504.125C575.073 504.125 576.417 503.51 578.188 502.281Z" fill="black"/>
<path d="M236.578 470.312L236.672 471.5C235.568 471.833 234.516 472 233.516 472C232.557 472 231.734 471.74 231.047 471.219C230.38 470.719 229.87 470.083 229.516 469.312C229.182 468.542 228.839 467.708 228.484 466.812C228.151 465.917 227.828 465.083 227.516 464.312C227.224 463.542 226.786 462.906 226.203 462.406C225.62 461.885 224.922 461.625 224.109 461.625L224.422 470.812C224.234 471.458 223.87 471.781 223.328 471.781C222.953 471.781 222.589 471.625 222.234 471.312C221.901 471 221.693 470.625 221.609 470.188C221.63 469.75 221.703 466.229 221.828 459.625C221.953 453 222.047 449.167 222.109 448.125L223.516 448.438C223.536 449.229 223.599 450.719 223.703 452.906C223.807 455.073 223.87 456.542 223.891 457.312C224.786 457.292 225.547 456.958 226.172 456.312C226.818 455.646 227.339 454.844 227.734 453.906C228.151 452.969 228.568 452.042 228.984 451.125C229.401 450.188 229.943 449.396 230.609 448.75C231.297 448.083 232.109 447.75 233.047 447.75C233.755 447.75 234.953 447.906 236.641 448.219L236.328 449.469C235.036 449.26 234.297 449.156 234.109 449.156C233.38 449.156 232.766 449.458 232.266 450.062C231.766 450.667 231.349 451.427 231.016 452.344C230.682 453.24 230.318 454.167 229.922 455.125C229.526 456.062 228.943 456.927 228.172 457.719C227.401 458.51 226.453 459.042 225.328 459.312C226.328 459.542 227.193 459.99 227.922 460.656C228.651 461.323 229.193 462.073 229.547 462.906C229.901 463.74 230.245 464.625 230.578 465.562C230.911 466.479 231.203 467.312 231.453 468.062C231.703 468.812 232.047 469.438 232.484 469.938C232.943 470.438 233.495 470.688 234.141 470.688C234.766 470.688 235.578 470.562 236.578 470.312ZM236.328 464.344C236.328 463.51 236.411 462.583 236.578 461.562C236.766 460.542 237.036 459.469 237.391 458.344C237.745 457.219 238.276 456.281 238.984 455.531C239.693 454.781 240.516 454.406 241.453 454.406C243.453 454.406 245.057 455.312 246.266 457.125C247.474 458.917 248.078 460.917 248.078 463.125C248.078 464.062 247.974 465 247.766 465.938C247.578 466.854 247.276 467.76 246.859 468.656C246.443 469.552 245.839 470.302 245.047 470.906C244.276 471.49 243.37 471.823 242.328 471.906C240.411 471.656 238.932 470.844 237.891 469.469C236.849 468.073 236.328 466.365 236.328 464.344ZM241.641 456.031C240.911 456.115 240.297 456.781 239.797 458.031C239.297 459.281 238.974 460.5 238.828 461.688C238.682 462.854 238.609 463.885 238.609 464.781C238.609 465.948 238.964 467.031 239.672 468.031C240.401 469.01 241.214 469.5 242.109 469.5C242.755 469.5 243.339 469.25 243.859 468.75C244.38 468.25 244.786 467.635 245.078 466.906C245.391 466.156 245.62 465.406 245.766 464.656C245.932 463.906 246.016 463.24 246.016 462.656C246.016 460.948 245.63 459.458 244.859 458.188C244.089 456.917 243.016 456.198 241.641 456.031ZM262.859 455.594L264.984 455.406C266.026 458.219 267.089 463.458 268.172 471.125C267.818 471.208 267.464 471.25 267.109 471.25C266.797 471.25 266.432 471.198 266.016 471.094C265.724 469.948 265.37 467.927 264.953 465.031C264.557 462.135 264.203 460.083 263.891 458.875C262.87 460.542 261.495 463.604 259.766 468.062C259.62 468.083 259.359 468.125 258.984 468.188C258.63 468.25 258.359 468.281 258.172 468.281C257.943 468.281 257.672 468.25 257.359 468.188C257.026 467.333 256.526 465.969 255.859 464.094C255.214 462.198 254.693 460.771 254.297 459.812C252.297 464.938 251.047 468.729 250.547 471.188L249.328 470.844C249.432 469.26 250.005 466.5 251.047 462.562C252.089 458.604 252.714 456.083 252.922 455C253.172 455 253.453 455.031 253.766 455.094C254.099 455.135 254.349 455.156 254.516 455.156C255.057 456.094 255.797 457.896 256.734 460.562C257.672 463.208 258.297 464.865 258.609 465.531C260.193 461.031 261.609 457.719 262.859 455.594ZM269.672 455.375L280.203 455.469L280.922 470.625C280.734 471.25 280.37 471.562 279.828 471.562C279.453 471.562 279.089 471.406 278.734 471.094C278.38 470.802 278.161 470.438 278.078 470C278.099 469.625 278.13 468.448 278.172 466.469C278.234 464.469 278.297 462.562 278.359 460.75C278.422 458.917 278.464 457.729 278.484 457.188C277.901 457.146 277.036 457.125 275.891 457.125C274.328 457.125 273.026 457.062 271.984 456.938C272.047 457.625 272.099 459.844 272.141 463.594C272.182 467.323 272.224 469.49 272.266 470.094C272.078 470.74 271.714 471.062 271.172 471.062C270.797 471.062 270.432 470.917 270.078 470.625C269.745 470.312 269.536 469.938 269.453 469.5C269.516 468.458 269.547 467.417 269.547 466.375C269.547 465.833 269.536 464.938 269.516 463.688C269.495 462.438 269.484 461.448 269.484 460.719C269.484 458.573 269.547 456.792 269.672 455.375ZM296.047 467.969L296.359 469.344C295.443 469.677 294.078 470.052 292.266 470.469C290.474 470.865 289.141 471.062 288.266 471.062C287.37 471.062 286.589 470.771 285.922 470.188C285.255 469.583 284.755 468.823 284.422 467.906C284.089 466.969 283.839 466.052 283.672 465.156C283.526 464.24 283.453 463.344 283.453 462.469C283.453 457.26 285.807 454.656 290.516 454.656C291.641 454.656 292.63 455.021 293.484 455.75C294.339 456.458 294.766 457.385 294.766 458.531C294.766 459.156 294.589 459.708 294.234 460.188C293.901 460.667 293.484 461.052 292.984 461.344C292.505 461.615 291.88 461.865 291.109 462.094C290.359 462.323 289.693 462.49 289.109 462.594C288.526 462.698 287.828 462.812 287.016 462.938C286.203 463.062 285.641 463.156 285.328 463.219C285.349 463.823 285.38 464.354 285.422 464.812C285.484 465.271 285.589 465.771 285.734 466.312C285.901 466.833 286.109 467.271 286.359 467.625C286.63 467.958 286.995 468.24 287.453 468.469C287.911 468.698 288.453 468.812 289.078 468.812C289.828 468.812 290.745 468.75 291.828 468.625C292.911 468.479 293.87 468.333 294.703 468.188C295.557 468.042 296.005 467.969 296.047 467.969ZM285.453 461.281C288.286 460.469 290.609 459.615 292.422 458.719C292.276 458.031 292.078 457.531 291.828 457.219C291.578 456.906 291.203 456.75 290.703 456.75C289.432 456.75 288.276 457.188 287.234 458.062C286.214 458.938 285.62 460.01 285.453 461.281ZM296.609 456.656L296.328 455.281C299.12 455.115 303.516 454.885 309.516 454.594C310.016 454.615 310.443 454.802 310.797 455.156C311.151 455.51 311.328 455.885 311.328 456.281C311.328 456.906 310.911 457.26 310.078 457.344L304.234 457.062C304.339 458.625 304.391 460.906 304.391 463.906C304.411 466.885 304.453 469.062 304.516 470.438C304.328 471.042 303.964 471.344 303.422 471.344C303.068 471.344 302.724 471.198 302.391 470.906C302.057 470.615 301.849 470.26 301.766 469.844C302.057 464.719 302.359 460.417 302.672 456.938L296.609 456.656ZM324.078 467.969L324.391 469.344C323.474 469.677 322.109 470.052 320.297 470.469C318.505 470.865 317.172 471.062 316.297 471.062C315.401 471.062 314.62 470.771 313.953 470.188C313.286 469.583 312.786 468.823 312.453 467.906C312.12 466.969 311.87 466.052 311.703 465.156C311.557 464.24 311.484 463.344 311.484 462.469C311.484 457.26 313.839 454.656 318.547 454.656C319.672 454.656 320.661 455.021 321.516 455.75C322.37 456.458 322.797 457.385 322.797 458.531C322.797 459.156 322.62 459.708 322.266 460.188C321.932 460.667 321.516 461.052 321.016 461.344C320.536 461.615 319.911 461.865 319.141 462.094C318.391 462.323 317.724 462.49 317.141 462.594C316.557 462.698 315.859 462.812 315.047 462.938C314.234 463.062 313.672 463.156 313.359 463.219C313.38 463.823 313.411 464.354 313.453 464.812C313.516 465.271 313.62 465.771 313.766 466.312C313.932 466.833 314.141 467.271 314.391 467.625C314.661 467.958 315.026 468.24 315.484 468.469C315.943 468.698 316.484 468.812 317.109 468.812C317.859 468.812 318.776 468.75 319.859 468.625C320.943 468.479 321.901 468.333 322.734 468.188C323.589 468.042 324.036 467.969 324.078 467.969ZM313.484 461.281C316.318 460.469 318.641 459.615 320.453 458.719C320.307 458.031 320.109 457.531 319.859 457.219C319.609 456.906 319.234 456.75 318.734 456.75C317.464 456.75 316.307 457.188 315.266 458.062C314.245 458.938 313.651 460.01 313.484 461.281ZM334.984 455.156L336.391 455.469L337.109 470.625C336.922 471.25 336.557 471.562 336.016 471.562C335.641 471.562 335.276 471.406 334.922 471.094C334.568 470.802 334.349 470.438 334.266 470C334.266 469.938 334.359 468.177 334.547 464.719V464.469C333.964 464.427 333.099 464.406 331.953 464.406C330.224 464.406 328.922 464.354 328.047 464.25C328.151 465.458 328.286 467.406 328.453 470.094C328.266 470.74 327.901 471.062 327.359 471.062C326.984 471.062 326.62 470.917 326.266 470.625C325.932 470.312 325.724 469.938 325.641 469.5C325.703 468.458 325.734 467.417 325.734 466.375C325.734 465.708 325.724 464.708 325.703 463.375C325.682 462.042 325.672 461.052 325.672 460.406C325.672 458.406 325.734 456.729 325.859 455.375L327.266 455.719C327.682 460.24 327.901 462.562 327.922 462.688C331.484 462.875 333.318 462.969 333.422 462.969C334.276 462.969 334.703 462.917 334.703 462.812C334.703 462.396 334.745 461.073 334.828 458.844C334.911 456.615 334.964 455.385 334.984 455.156ZM338.641 456.656L338.359 455.281C341.151 455.115 345.547 454.885 351.547 454.594C352.047 454.615 352.474 454.802 352.828 455.156C353.182 455.51 353.359 455.885 353.359 456.281C353.359 456.906 352.943 457.26 352.109 457.344L346.266 457.062C346.37 458.625 346.422 460.906 346.422 463.906C346.443 466.885 346.484 469.062 346.547 470.438C346.359 471.042 345.995 471.344 345.453 471.344C345.099 471.344 344.755 471.198 344.422 470.906C344.089 470.615 343.88 470.26 343.797 469.844C344.089 464.719 344.391 460.417 344.703 456.938L338.641 456.656ZM363.984 455.156L365.391 455.469L366.109 470.625C365.922 471.25 365.557 471.562 365.016 471.562C364.641 471.562 364.276 471.406 363.922 471.094C363.568 470.802 363.349 470.438 363.266 470C363.266 469.938 363.359 468.177 363.547 464.719V464.469C362.964 464.427 362.099 464.406 360.953 464.406C359.224 464.406 357.922 464.354 357.047 464.25C357.151 465.458 357.286 467.406 357.453 470.094C357.266 470.74 356.901 471.062 356.359 471.062C355.984 471.062 355.62 470.917 355.266 470.625C354.932 470.312 354.724 469.938 354.641 469.5C354.703 468.458 354.734 467.417 354.734 466.375C354.734 465.708 354.724 464.708 354.703 463.375C354.682 462.042 354.672 461.052 354.672 460.406C354.672 458.406 354.734 456.729 354.859 455.375L356.266 455.719C356.682 460.24 356.901 462.562 356.922 462.688C360.484 462.875 362.318 462.969 362.422 462.969C363.276 462.969 363.703 462.917 363.703 462.812C363.703 462.396 363.745 461.073 363.828 458.844C363.911 456.615 363.964 455.385 363.984 455.156ZM368.641 464.344C368.641 463.51 368.724 462.583 368.891 461.562C369.078 460.542 369.349 459.469 369.703 458.344C370.057 457.219 370.589 456.281 371.297 455.531C372.005 454.781 372.828 454.406 373.766 454.406C375.766 454.406 377.37 455.312 378.578 457.125C379.786 458.917 380.391 460.917 380.391 463.125C380.391 464.062 380.286 465 380.078 465.938C379.891 466.854 379.589 467.76 379.172 468.656C378.755 469.552 378.151 470.302 377.359 470.906C376.589 471.49 375.682 471.823 374.641 471.906C372.724 471.656 371.245 470.844 370.203 469.469C369.161 468.073 368.641 466.365 368.641 464.344ZM373.953 456.031C373.224 456.115 372.609 456.781 372.109 458.031C371.609 459.281 371.286 460.5 371.141 461.688C370.995 462.854 370.922 463.885 370.922 464.781C370.922 465.948 371.276 467.031 371.984 468.031C372.714 469.01 373.526 469.5 374.422 469.5C375.068 469.5 375.651 469.25 376.172 468.75C376.693 468.25 377.099 467.635 377.391 466.906C377.703 466.156 377.932 465.406 378.078 464.656C378.245 463.906 378.328 463.24 378.328 462.656C378.328 460.948 377.943 459.458 377.172 458.188C376.401 456.917 375.328 456.198 373.953 456.031ZM393.453 455.5L393.297 456.844C392.422 456.719 391.672 456.656 391.047 456.656C389.609 456.656 388.422 457.094 387.484 457.969C386.547 458.823 385.901 459.844 385.547 461.031C385.214 462.198 385.047 463.5 385.047 464.938C385.047 465.604 385.089 466.198 385.172 466.719C385.255 467.24 385.401 467.75 385.609 468.25C385.839 468.75 386.182 469.146 386.641 469.438C387.12 469.708 387.703 469.844 388.391 469.844C389.307 469.844 390.474 469.667 391.891 469.312C392.328 469.146 392.672 469.062 392.922 469.062C393.422 469.062 393.724 469.646 393.828 470.812C391.995 471.396 390.297 471.688 388.734 471.688C386.464 471.688 384.922 471.135 384.109 470.031C383.318 468.906 382.922 467.094 382.922 464.594C382.922 463.135 383.016 461.865 383.203 460.781C383.411 459.677 383.766 458.656 384.266 457.719C384.766 456.76 385.484 456.031 386.422 455.531C387.38 455.031 388.547 454.781 389.922 454.781C391.464 454.781 392.641 455.021 393.453 455.5ZM394.422 456.656L394.141 455.281C396.932 455.115 401.328 454.885 407.328 454.594C407.828 454.615 408.255 454.802 408.609 455.156C408.964 455.51 409.141 455.885 409.141 456.281C409.141 456.906 408.724 457.26 407.891 457.344L402.047 457.062C402.151 458.625 402.203 460.906 402.203 463.906C402.224 466.885 402.266 469.062 402.328 470.438C402.141 471.042 401.776 471.344 401.234 471.344C400.88 471.344 400.536 471.198 400.203 470.906C399.87 470.615 399.661 470.26 399.578 469.844C399.87 464.719 400.172 460.417 400.484 456.938L394.422 456.656ZM410.516 455.156L411.922 455.469C411.964 456.135 412.026 456.917 412.109 457.812C412.214 458.708 412.328 459.729 412.453 460.875C413.286 460.625 414.078 460.5 414.828 460.5C415.724 460.5 416.557 460.677 417.328 461.031C418.099 461.365 418.755 461.812 419.297 462.375C419.839 462.938 420.266 463.583 420.578 464.312C420.891 465.021 421.047 465.75 421.047 466.5C421.047 467.229 420.891 467.896 420.578 468.5C420.266 469.104 419.849 469.625 419.328 470.062C418.807 470.479 418.203 470.802 417.516 471.031C416.828 471.281 416.099 471.406 415.328 471.406C415.182 471.406 414.859 471.396 414.359 471.375C413.859 471.354 413.328 471.302 412.766 471.219C412.224 471.156 411.734 471.062 411.297 470.938C410.859 470.812 410.63 470.635 410.609 470.406C410.609 470.052 410.599 469.573 410.578 468.969C410.578 468.344 410.568 467.656 410.547 466.906C410.547 466.156 410.536 465.375 410.516 464.562C410.495 463.729 410.474 462.927 410.453 462.156C410.453 461.385 410.443 460.677 410.422 460.031C410.422 459.385 410.422 458.875 410.422 458.5C410.422 457.333 410.453 456.219 410.516 455.156ZM412.734 462.812L412.453 469.094C413.286 469.385 414.078 469.531 414.828 469.531C415.411 469.531 415.943 469.438 416.422 469.25C416.922 469.042 417.339 468.781 417.672 468.469C418.005 468.135 418.266 467.76 418.453 467.344C418.641 466.927 418.734 466.49 418.734 466.031C418.734 465.573 418.641 465.146 418.453 464.75C418.266 464.333 417.984 463.969 417.609 463.656C417.234 463.344 416.776 463.104 416.234 462.938C415.693 462.75 415.078 462.656 414.391 462.656C414.161 462.656 413.911 462.677 413.641 462.719C413.37 462.74 413.068 462.771 412.734 462.812ZM281.109 508.812L280.609 507.469C281.297 507.198 281.922 506.771 282.484 506.188C283.026 505.604 283.474 505 283.828 504.375C284.182 503.729 284.484 502.927 284.734 501.969C284.984 501.01 285.161 500.177 285.266 499.469C285.391 498.74 285.484 497.844 285.547 496.781C285.609 495.719 285.641 494.927 285.641 494.406C285.661 493.865 285.672 493.146 285.672 492.25C285.672 490.979 285.786 490.219 286.016 489.969C286.307 489.656 287.922 489.5 290.859 489.5C293.172 489.5 294.484 489.49 294.797 489.469C294.839 497.927 294.943 503.417 295.109 505.938C294.901 506.562 294.536 506.875 294.016 506.875C293.661 506.875 293.318 506.729 292.984 506.438C292.651 506.146 292.443 505.792 292.359 505.375C292.339 504.562 292.328 503.354 292.328 501.75C292.328 500.958 292.328 499.76 292.328 498.156C292.349 496.552 292.359 495.344 292.359 494.531C292.359 493.031 292.349 491.906 292.328 491.156C291.453 491.302 290.589 491.385 289.734 491.406C288.88 491.427 288.276 491.458 287.922 491.5C287.859 492.188 287.807 493.208 287.766 494.562C287.724 495.917 287.682 497.115 287.641 498.156C287.62 499.177 287.495 500.344 287.266 501.656C287.036 502.948 286.703 504.052 286.266 504.969C285.849 505.865 285.193 506.667 284.297 507.375C283.422 508.104 282.359 508.583 281.109 508.812ZM300.234 499.75L300.391 505.594C300.203 506.198 299.839 506.5 299.297 506.5C298.943 506.5 298.599 506.354 298.266 506.062C297.932 505.771 297.724 505.417 297.641 505L298.297 491.219L299.672 491.5C299.901 495.646 300.016 497.781 300.016 497.906C300.12 497.885 300.286 497.875 300.516 497.875C300.786 497.875 301.203 497.906 301.766 497.969C302.328 498.01 302.745 498.031 303.016 498.031C303.62 498.031 304.161 497.948 304.641 497.781C304.724 496.823 304.818 496.01 304.922 495.344C305.026 494.656 305.193 493.948 305.422 493.219C305.672 492.469 305.964 491.865 306.297 491.406C306.651 490.948 307.109 490.573 307.672 490.281C308.234 489.99 308.891 489.844 309.641 489.844C310.349 489.844 310.953 489.948 311.453 490.156C311.974 490.344 312.464 490.719 312.922 491.281C313.401 491.823 313.766 492.667 314.016 493.812C314.266 494.938 314.391 496.354 314.391 498.062C314.391 498.729 314.286 499.5 314.078 500.375C313.87 501.229 313.557 502.115 313.141 503.031C312.724 503.948 312.12 504.719 311.328 505.344C310.536 505.969 309.641 506.281 308.641 506.281C307.391 506.281 306.37 505.938 305.578 505.25C304.807 504.542 304.422 503.531 304.422 502.219C304.422 501.448 304.432 500.854 304.453 500.438L300.234 499.75ZM312.297 495.969C312.297 495.552 312.255 495.115 312.172 494.656C312.109 494.198 311.984 493.719 311.797 493.219C311.63 492.719 311.37 492.312 311.016 492C310.682 491.667 310.276 491.5 309.797 491.5C309.214 491.5 308.703 491.74 308.266 492.219C307.828 492.698 307.495 493.312 307.266 494.062C307.036 494.792 306.859 495.531 306.734 496.281C306.63 497.01 306.578 497.719 306.578 498.406C306.578 499.948 306.661 501.125 306.828 501.938C306.995 502.75 307.224 503.292 307.516 503.562C307.807 503.812 308.214 503.938 308.734 503.938C309.484 503.938 310.141 503.469 310.703 502.531C311.266 501.573 311.672 500.51 311.922 499.344C312.172 498.156 312.297 497.031 312.297 495.969ZM316.109 510.094L314.703 509.781C314.703 509.552 314.661 508.875 314.578 507.75C314.495 506.625 314.453 505.812 314.453 505.312C314.453 504.896 314.484 504.448 314.547 503.969H316.578C316.682 503.615 316.849 503.083 317.078 502.375C317.328 501.667 317.495 501.167 317.578 500.875C317.661 500.583 317.776 500.156 317.922 499.594C318.089 499.01 318.193 498.521 318.234 498.125C318.297 497.708 318.349 497.198 318.391 496.594C318.453 495.99 318.484 495.354 318.484 494.688C318.484 493.125 318.422 491.365 318.297 489.406C319.464 489.469 320.693 489.51 321.984 489.531C323.297 489.552 324.37 489.583 325.203 489.625C326.036 489.667 326.891 489.76 327.766 489.906C327.828 491.323 327.891 493.656 327.953 496.906C328.036 500.135 328.109 502.458 328.172 503.875H330.609V504.812C330.609 505.354 330.62 506.125 330.641 507.125C330.682 508.125 330.703 508.792 330.703 509.125C330.703 509.75 330.682 510.229 330.641 510.562L329.234 510.25C329.151 509.958 329.068 509.583 328.984 509.125C328.922 508.688 328.849 508.208 328.766 507.688C328.682 507.167 328.62 506.792 328.578 506.562C327.391 506.5 325.495 506.375 322.891 506.188C320.307 506 318.286 505.875 316.828 505.812L316.109 510.094ZM320.922 491.375C320.901 491.688 320.88 492.344 320.859 493.344C320.839 494.323 320.807 495.073 320.766 495.594C320.745 496.115 320.682 496.844 320.578 497.781C320.495 498.698 320.38 499.469 320.234 500.094C320.089 500.698 319.87 501.365 319.578 502.094C319.307 502.802 318.984 503.417 318.609 503.938H325.453L326.078 491.625C325.786 491.604 325.016 491.573 323.766 491.531C322.536 491.49 321.589 491.438 320.922 491.375ZM343.641 502.969L343.953 504.344C343.036 504.677 341.672 505.052 339.859 505.469C338.068 505.865 336.734 506.062 335.859 506.062C334.964 506.062 334.182 505.771 333.516 505.188C332.849 504.583 332.349 503.823 332.016 502.906C331.682 501.969 331.432 501.052 331.266 500.156C331.12 499.24 331.047 498.344 331.047 497.469C331.047 492.26 333.401 489.656 338.109 489.656C339.234 489.656 340.224 490.021 341.078 490.75C341.932 491.458 342.359 492.385 342.359 493.531C342.359 494.156 342.182 494.708 341.828 495.188C341.495 495.667 341.078 496.052 340.578 496.344C340.099 496.615 339.474 496.865 338.703 497.094C337.953 497.323 337.286 497.49 336.703 497.594C336.12 497.698 335.422 497.812 334.609 497.938C333.797 498.062 333.234 498.156 332.922 498.219C332.943 498.823 332.974 499.354 333.016 499.812C333.078 500.271 333.182 500.771 333.328 501.312C333.495 501.833 333.703 502.271 333.953 502.625C334.224 502.958 334.589 503.24 335.047 503.469C335.505 503.698 336.047 503.812 336.672 503.812C337.422 503.812 338.339 503.75 339.422 503.625C340.505 503.479 341.464 503.333 342.297 503.188C343.151 503.042 343.599 502.969 343.641 502.969ZM333.047 496.281C335.88 495.469 338.203 494.615 340.016 493.719C339.87 493.031 339.672 492.531 339.422 492.219C339.172 491.906 338.797 491.75 338.297 491.75C337.026 491.75 335.87 492.188 334.828 493.062C333.807 493.938 333.214 495.01 333.047 496.281ZM348.047 486.562L347.828 485.594C348.328 485.656 348.818 485.688 349.297 485.688C350.734 485.688 352.057 485.292 353.266 484.5C353.745 484.542 354.151 484.688 354.484 484.938C354.818 485.188 354.984 485.479 354.984 485.812C354.984 486.083 354.891 486.302 354.703 486.469C354.516 486.635 354.234 486.76 353.859 486.844C353.484 486.906 353.172 486.948 352.922 486.969C352.672 486.969 352.339 486.969 351.922 486.969C350.568 486.969 349.276 486.833 348.047 486.562ZM347.953 503.406C347.953 503.76 347.974 504.229 348.016 504.812C347.828 505.458 347.464 505.781 346.922 505.781C346.547 505.781 346.182 505.635 345.828 505.344C345.495 505.031 345.286 504.656 345.203 504.219C345.266 502.531 345.339 500.062 345.422 496.812C345.526 493.562 345.599 491.365 345.641 490.219L347.078 489.969C347.328 491.302 347.484 493.073 347.547 495.281C347.609 497.49 347.693 499.135 347.797 500.219C348.193 499.635 349.318 498.115 351.172 495.656C353.026 493.198 354.286 491.365 354.953 490.156C355.411 490.073 355.703 490.031 355.828 490.031C356.224 490.031 356.495 490.208 356.641 490.562C356.807 490.917 356.911 491.583 356.953 492.562L357.547 505.438C357.359 506.062 356.995 506.375 356.453 506.375C356.078 506.375 355.714 506.229 355.359 505.938C355.026 505.625 354.818 505.25 354.734 504.812C354.755 504.125 354.807 502.448 354.891 499.781C354.995 497.094 355.078 495.188 355.141 494.062C351.578 498.125 349.182 501.24 347.953 503.406Z" fill="black"/>
<path d="M34.6719 475L33.2656 474.688C33.0781 473.104 32.7552 471.812 32.2969 470.812C30.5677 470.688 28.8385 470.625 27.1094 470.625C25.6302 470.625 23.4323 470.688 20.5156 470.812C20.3906 471.25 20.151 472.771 19.7969 475.375L18.4531 475.25C18.0365 473.021 17.8281 471.104 17.8281 469.5C17.8281 469.417 17.8281 469.271 17.8281 469.062C17.849 468.854 17.8594 468.698 17.8594 468.594C17.8802 468.594 18.224 468.594 18.8906 468.594C19.5573 468.573 19.901 468.562 19.9219 468.562C20.4635 467.458 20.901 466.271 21.2344 465C21.5885 463.708 21.8281 462.333 21.9531 460.875C22.0781 459.396 22.1615 458.104 22.2031 457C22.2448 455.875 22.2656 454.448 22.2656 452.719C22.2656 450.99 22.276 449.698 22.2969 448.844C23.7552 448.74 27.0052 448.688 32.0469 448.688L32.7344 468.281C33.0677 468.323 33.4115 468.354 33.7656 468.375C34.1198 468.396 34.4635 468.417 34.7969 468.438C34.7344 468.875 34.7031 469.417 34.7031 470.062C34.7031 470.396 34.7135 470.917 34.7344 471.625C34.7552 472.354 34.7656 472.896 34.7656 473.25C34.7656 473.958 34.7344 474.542 34.6719 475ZM22.4219 468.375C22.9844 468.375 23.8281 468.396 24.9531 468.438C26.0781 468.458 26.9115 468.469 27.4531 468.469C28.2448 468.469 29.0677 468.438 29.9219 468.375C29.9635 467.062 29.9844 465.01 29.9844 462.219V456C29.9844 453.521 30.0052 451.677 30.0469 450.469C29.4635 450.427 29.026 450.406 28.7344 450.406C28.2552 450.406 27.5573 450.438 26.6406 450.5C25.7448 450.562 25.1406 450.604 24.8281 450.625C24.7656 451.562 24.6927 453.042 24.6094 455.062C24.526 457.062 24.4427 458.615 24.3594 459.719C24.276 460.823 24.0677 462.198 23.7344 463.844C23.4219 465.469 22.9844 466.979 22.4219 468.375ZM36.7031 464.344C36.7031 463.51 36.7865 462.583 36.9531 461.562C37.1406 460.542 37.4115 459.469 37.7656 458.344C38.1198 457.219 38.651 456.281 39.3594 455.531C40.0677 454.781 40.8906 454.406 41.8281 454.406C43.8281 454.406 45.4323 455.312 46.6406 457.125C47.849 458.917 48.4531 460.917 48.4531 463.125C48.4531 464.062 48.349 465 48.1406 465.938C47.9531 466.854 47.651 467.76 47.2344 468.656C46.8177 469.552 46.2135 470.302 45.4219 470.906C44.651 471.49 43.7448 471.823 42.7031 471.906C40.7865 471.656 39.3073 470.844 38.2656 469.469C37.224 468.073 36.7031 466.365 36.7031 464.344ZM42.0156 456.031C41.2865 456.115 40.6719 456.781 40.1719 458.031C39.6719 459.281 39.349 460.5 39.2031 461.688C39.0573 462.854 38.9844 463.885 38.9844 464.781C38.9844 465.948 39.3385 467.031 40.0469 468.031C40.776 469.01 41.5885 469.5 42.4844 469.5C43.1302 469.5 43.7135 469.25 44.2344 468.75C44.7552 468.25 45.1615 467.635 45.4531 466.906C45.7656 466.156 45.9948 465.406 46.1406 464.656C46.3073 463.906 46.3906 463.24 46.3906 462.656C46.3906 460.948 46.0052 459.458 45.2344 458.188C44.4635 456.917 43.3906 456.198 42.0156 456.031ZM61.5156 455.5L61.3594 456.844C60.4844 456.719 59.7344 456.656 59.1094 456.656C57.6719 456.656 56.4844 457.094 55.5469 457.969C54.6094 458.823 53.9635 459.844 53.6094 461.031C53.276 462.198 53.1094 463.5 53.1094 464.938C53.1094 465.604 53.151 466.198 53.2344 466.719C53.3177 467.24 53.4635 467.75 53.6719 468.25C53.901 468.75 54.2448 469.146 54.7031 469.438C55.1823 469.708 55.7656 469.844 56.4531 469.844C57.3698 469.844 58.5365 469.667 59.9531 469.312C60.3906 469.146 60.7344 469.062 60.9844 469.062C61.4844 469.062 61.7865 469.646 61.8906 470.812C60.0573 471.396 58.3594 471.688 56.7969 471.688C54.526 471.688 52.9844 471.135 52.1719 470.031C51.3802 468.906 50.9844 467.094 50.9844 464.594C50.9844 463.135 51.0781 461.865 51.2656 460.781C51.474 459.677 51.8281 458.656 52.3281 457.719C52.8281 456.76 53.5469 456.031 54.4844 455.531C55.4427 455.031 56.6094 454.781 57.9844 454.781C59.526 454.781 60.7031 455.021 61.5156 455.5ZM62.4844 456.656L62.2031 455.281C64.9948 455.115 69.3906 454.885 75.3906 454.594C75.8906 454.615 76.3177 454.802 76.6719 455.156C77.026 455.51 77.2031 455.885 77.2031 456.281C77.2031 456.906 76.7865 457.26 75.9531 457.344L70.1094 457.062C70.2135 458.625 70.2656 460.906 70.2656 463.906C70.2865 466.885 70.3281 469.062 70.3906 470.438C70.2031 471.042 69.8385 471.344 69.2969 471.344C68.9427 471.344 68.599 471.198 68.2656 470.906C67.9323 470.615 67.724 470.26 67.6406 469.844C67.9323 464.719 68.2344 460.417 68.5469 456.938L62.4844 456.656ZM80.7344 480.25L78.7969 479.156C79.651 477.677 81.1615 474.865 83.3281 470.719C81.6406 469.219 80.349 466.948 79.4531 463.906C78.5573 460.865 78.0156 457.823 77.8281 454.781L79.6406 454.875C79.7448 455.375 79.9635 456.521 80.2969 458.312C80.651 460.083 80.9323 461.396 81.1406 462.25C81.349 463.104 81.7135 464.177 82.2344 465.469C82.776 466.74 83.3906 467.812 84.0781 468.688C86.974 463.125 88.4219 458.562 88.4219 455V454.656C89.5052 454.823 90.3177 455.021 90.8594 455.25C90.526 457.438 90.0052 459.667 89.2969 461.938C88.5885 464.208 87.7031 466.5 86.6406 468.812C85.5781 471.104 84.6302 473.031 83.7969 474.594C82.9844 476.156 81.9635 478.042 80.7344 480.25ZM92.3594 455.375L102.891 455.469L103.609 470.625C103.422 471.25 103.057 471.562 102.516 471.562C102.141 471.562 101.776 471.406 101.422 471.094C101.068 470.802 100.849 470.438 100.766 470C100.786 469.625 100.818 468.448 100.859 466.469C100.922 464.469 100.984 462.562 101.047 460.75C101.109 458.917 101.151 457.729 101.172 457.188C100.589 457.146 99.724 457.125 98.5781 457.125C97.0156 457.125 95.7135 457.062 94.6719 456.938C94.7344 457.625 94.7865 459.844 94.8281 463.594C94.8698 467.323 94.9115 469.49 94.9531 470.094C94.7656 470.74 94.401 471.062 93.8594 471.062C93.4844 471.062 93.1198 470.917 92.7656 470.625C92.4323 470.312 92.224 469.938 92.1406 469.5C92.2031 468.458 92.2344 467.417 92.2344 466.375C92.2344 465.833 92.224 464.938 92.2031 463.688C92.1823 462.438 92.1719 461.448 92.1719 460.719C92.1719 458.573 92.2344 456.792 92.3594 455.375ZM115.484 455.156L116.891 455.469L117.609 470.625C117.422 471.25 117.057 471.562 116.516 471.562C116.141 471.562 115.776 471.406 115.422 471.094C115.068 470.802 114.849 470.438 114.766 470C114.766 469.938 114.859 468.177 115.047 464.719V464.469C114.464 464.427 113.599 464.406 112.453 464.406C110.724 464.406 109.422 464.354 108.547 464.25C108.651 465.458 108.786 467.406 108.953 470.094C108.766 470.74 108.401 471.062 107.859 471.062C107.484 471.062 107.12 470.917 106.766 470.625C106.432 470.312 106.224 469.938 106.141 469.5C106.203 468.458 106.234 467.417 106.234 466.375C106.234 465.708 106.224 464.708 106.203 463.375C106.182 462.042 106.172 461.052 106.172 460.406C106.172 458.406 106.234 456.729 106.359 455.375L107.766 455.719C108.182 460.24 108.401 462.562 108.422 462.688C111.984 462.875 113.818 462.969 113.922 462.969C114.776 462.969 115.203 462.917 115.203 462.812C115.203 462.396 115.245 461.073 115.328 458.844C115.411 456.615 115.464 455.385 115.484 455.156ZM120.141 464.344C120.141 463.51 120.224 462.583 120.391 461.562C120.578 460.542 120.849 459.469 121.203 458.344C121.557 457.219 122.089 456.281 122.797 455.531C123.505 454.781 124.328 454.406 125.266 454.406C127.266 454.406 128.87 455.312 130.078 457.125C131.286 458.917 131.891 460.917 131.891 463.125C131.891 464.062 131.786 465 131.578 465.938C131.391 466.854 131.089 467.76 130.672 468.656C130.255 469.552 129.651 470.302 128.859 470.906C128.089 471.49 127.182 471.823 126.141 471.906C124.224 471.656 122.745 470.844 121.703 469.469C120.661 468.073 120.141 466.365 120.141 464.344ZM125.453 456.031C124.724 456.115 124.109 456.781 123.609 458.031C123.109 459.281 122.786 460.5 122.641 461.688C122.495 462.854 122.422 463.885 122.422 464.781C122.422 465.948 122.776 467.031 123.484 468.031C124.214 469.01 125.026 469.5 125.922 469.5C126.568 469.5 127.151 469.25 127.672 468.75C128.193 468.25 128.599 467.635 128.891 466.906C129.203 466.156 129.432 465.406 129.578 464.656C129.745 463.906 129.828 463.24 129.828 462.656C129.828 460.948 129.443 459.458 128.672 458.188C127.901 456.917 126.828 456.198 125.453 456.031ZM144.953 455.5L144.797 456.844C143.922 456.719 143.172 456.656 142.547 456.656C141.109 456.656 139.922 457.094 138.984 457.969C138.047 458.823 137.401 459.844 137.047 461.031C136.714 462.198 136.547 463.5 136.547 464.938C136.547 465.604 136.589 466.198 136.672 466.719C136.755 467.24 136.901 467.75 137.109 468.25C137.339 468.75 137.682 469.146 138.141 469.438C138.62 469.708 139.203 469.844 139.891 469.844C140.807 469.844 141.974 469.667 143.391 469.312C143.828 469.146 144.172 469.062 144.422 469.062C144.922 469.062 145.224 469.646 145.328 470.812C143.495 471.396 141.797 471.688 140.234 471.688C137.964 471.688 136.422 471.135 135.609 470.031C134.818 468.906 134.422 467.094 134.422 464.594C134.422 463.135 134.516 461.865 134.703 460.781C134.911 459.677 135.266 458.656 135.766 457.719C136.266 456.76 136.984 456.031 137.922 455.531C138.88 455.031 140.047 454.781 141.422 454.781C142.964 454.781 144.141 455.021 144.953 455.5ZM145.922 456.656L145.641 455.281C148.432 455.115 152.828 454.885 158.828 454.594C159.328 454.615 159.755 454.802 160.109 455.156C160.464 455.51 160.641 455.885 160.641 456.281C160.641 456.906 160.224 457.26 159.391 457.344L153.547 457.062C153.651 458.625 153.703 460.906 153.703 463.906C153.724 466.885 153.766 469.062 153.828 470.438C153.641 471.042 153.276 471.344 152.734 471.344C152.38 471.344 152.036 471.198 151.703 470.906C151.37 470.615 151.161 470.26 151.078 469.844C151.37 464.719 151.672 460.417 151.984 456.938L145.922 456.656ZM162.016 455.156L163.422 455.469C163.464 456.135 163.526 456.917 163.609 457.812C163.714 458.708 163.828 459.729 163.953 460.875C164.786 460.625 165.578 460.5 166.328 460.5C167.224 460.5 168.057 460.677 168.828 461.031C169.599 461.365 170.255 461.812 170.797 462.375C171.339 462.938 171.766 463.583 172.078 464.312C172.391 465.021 172.547 465.75 172.547 466.5C172.547 467.229 172.391 467.896 172.078 468.5C171.766 469.104 171.349 469.625 170.828 470.062C170.307 470.479 169.703 470.802 169.016 471.031C168.328 471.281 167.599 471.406 166.828 471.406C166.682 471.406 166.359 471.396 165.859 471.375C165.359 471.354 164.828 471.302 164.266 471.219C163.724 471.156 163.234 471.062 162.797 470.938C162.359 470.812 162.13 470.635 162.109 470.406C162.109 470.052 162.099 469.573 162.078 468.969C162.078 468.344 162.068 467.656 162.047 466.906C162.047 466.156 162.036 465.375 162.016 464.562C161.995 463.729 161.974 462.927 161.953 462.156C161.953 461.385 161.943 460.677 161.922 460.031C161.922 459.385 161.922 458.875 161.922 458.5C161.922 457.333 161.953 456.219 162.016 455.156ZM164.234 462.812L163.953 469.094C164.786 469.385 165.578 469.531 166.328 469.531C166.911 469.531 167.443 469.438 167.922 469.25C168.422 469.042 168.839 468.781 169.172 468.469C169.505 468.135 169.766 467.76 169.953 467.344C170.141 466.927 170.234 466.49 170.234 466.031C170.234 465.573 170.141 465.146 169.953 464.75C169.766 464.333 169.484 463.969 169.109 463.656C168.734 463.344 168.276 463.104 167.734 462.938C167.193 462.75 166.578 462.656 165.891 462.656C165.661 462.656 165.411 462.677 165.141 462.719C164.87 462.74 164.568 462.771 164.234 462.812ZM27.4688 491.656L27.1875 490.281C29.9792 490.115 34.375 489.885 40.375 489.594C40.875 489.615 41.3021 489.802 41.6562 490.156C42.0104 490.51 42.1875 490.885 42.1875 491.281C42.1875 491.906 41.7708 492.26 40.9375 492.344L35.0938 492.062C35.1979 493.625 35.25 495.906 35.25 498.906C35.2708 501.885 35.3125 504.062 35.375 505.438C35.1875 506.042 34.8229 506.344 34.2812 506.344C33.9271 506.344 33.5833 506.198 33.25 505.906C32.9167 505.615 32.7083 505.26 32.625 504.844C32.9167 499.719 33.2188 495.417 33.5312 491.938L27.4688 491.656ZM54.9375 502.969L55.25 504.344C54.3333 504.677 52.9688 505.052 51.1562 505.469C49.3646 505.865 48.0312 506.062 47.1562 506.062C46.2604 506.062 45.4792 505.771 44.8125 505.188C44.1458 504.583 43.6458 503.823 43.3125 502.906C42.9792 501.969 42.7292 501.052 42.5625 500.156C42.4167 499.24 42.3438 498.344 42.3438 497.469C42.3438 492.26 44.6979 489.656 49.4062 489.656C50.5312 489.656 51.5208 490.021 52.375 490.75C53.2292 491.458 53.6562 492.385 53.6562 493.531C53.6562 494.156 53.4792 494.708 53.125 495.188C52.7917 495.667 52.375 496.052 51.875 496.344C51.3958 496.615 50.7708 496.865 50 497.094C49.25 497.323 48.5833 497.49 48 497.594C47.4167 497.698 46.7188 497.812 45.9062 497.938C45.0938 498.062 44.5312 498.156 44.2188 498.219C44.2396 498.823 44.2708 499.354 44.3125 499.812C44.375 500.271 44.4792 500.771 44.625 501.312C44.7917 501.833 45 502.271 45.25 502.625C45.5208 502.958 45.8854 503.24 46.3438 503.469C46.8021 503.698 47.3438 503.812 47.9688 503.812C48.7188 503.812 49.6354 503.75 50.7188 503.625C51.8021 503.479 52.7604 503.333 53.5938 503.188C54.4479 503.042 54.8958 502.969 54.9375 502.969ZM44.3438 496.281C47.1771 495.469 49.5 494.615 51.3125 493.719C51.1667 493.031 50.9688 492.531 50.7188 492.219C50.4688 491.906 50.0938 491.75 49.5938 491.75C48.3229 491.75 47.1667 492.188 46.125 493.062C45.1042 493.938 44.5104 495.01 44.3438 496.281ZM56.5625 506.781L55.2188 506.062C55.7604 504.708 57.1771 502.083 59.4688 498.188C58.2604 496.542 56.8854 493.802 55.3438 489.969H56.7188C57.4896 491.594 58.7917 493.708 60.625 496.312C60.9375 495.875 61.3438 495.198 61.8438 494.281C62.3646 493.365 62.8646 492.573 63.3438 491.906C63.8438 491.24 64.4062 490.656 65.0312 490.156C65.7812 490.573 66.1562 491.062 66.1562 491.625C66.1562 491.938 66.0833 492.24 65.9375 492.531C65.375 493.219 64.6562 494.302 63.7812 495.781C62.9062 497.26 62.3646 498.156 62.1562 498.469C64.3646 501.552 65.8542 503.875 66.625 505.438C66.625 506.229 66.2708 506.625 65.5625 506.625C64.8542 506.625 64.3125 506.281 63.9375 505.594C63.5625 504.344 62.5729 502.573 60.9688 500.281C60.6146 500.865 59.8854 501.927 58.7812 503.469C57.6979 504.99 56.9583 506.094 56.5625 506.781ZM77.2188 490.156L78.625 490.469L79.3438 505.625C79.1562 506.25 78.7917 506.562 78.25 506.562C77.875 506.562 77.5104 506.406 77.1562 506.094C76.8021 505.802 76.5833 505.438 76.5 505C76.5 504.938 76.5938 503.177 76.7812 499.719V499.469C76.1979 499.427 75.3333 499.406 74.1875 499.406C72.4583 499.406 71.1562 499.354 70.2812 499.25C70.3854 500.458 70.5208 502.406 70.6875 505.094C70.5 505.74 70.1354 506.062 69.5938 506.062C69.2188 506.062 68.8542 505.917 68.5 505.625C68.1667 505.312 67.9583 504.938 67.875 504.5C67.9375 503.458 67.9688 502.417 67.9688 501.375C67.9688 500.708 67.9583 499.708 67.9375 498.375C67.9167 497.042 67.9062 496.052 67.9062 495.406C67.9062 493.406 67.9688 491.729 68.0938 490.375L69.5 490.719C69.9167 495.24 70.1354 497.562 70.1562 497.688C73.7188 497.875 75.5521 497.969 75.6562 497.969C76.5104 497.969 76.9375 497.917 76.9375 497.812C76.9375 497.396 76.9792 496.073 77.0625 493.844C77.1458 491.615 77.1979 490.385 77.2188 490.156ZM81.875 499.344C81.875 498.51 81.9583 497.583 82.125 496.562C82.3125 495.542 82.5833 494.469 82.9375 493.344C83.2917 492.219 83.8229 491.281 84.5312 490.531C85.2396 489.781 86.0625 489.406 87 489.406C89 489.406 90.6042 490.312 91.8125 492.125C93.0208 493.917 93.625 495.917 93.625 498.125C93.625 499.062 93.5208 500 93.3125 500.938C93.125 501.854 92.8229 502.76 92.4062 503.656C91.9896 504.552 91.3854 505.302 90.5938 505.906C89.8229 506.49 88.9167 506.823 87.875 506.906C85.9583 506.656 84.4792 505.844 83.4375 504.469C82.3958 503.073 81.875 501.365 81.875 499.344ZM87.1875 491.031C86.4583 491.115 85.8438 491.781 85.3438 493.031C84.8438 494.281 84.5208 495.5 84.375 496.688C84.2292 497.854 84.1562 498.885 84.1562 499.781C84.1562 500.948 84.5104 502.031 85.2188 503.031C85.9479 504.01 86.7604 504.5 87.6562 504.5C88.3021 504.5 88.8854 504.25 89.4062 503.75C89.9271 503.25 90.3333 502.635 90.625 501.906C90.9375 501.156 91.1667 500.406 91.3125 499.656C91.4792 498.906 91.5625 498.24 91.5625 497.656C91.5625 495.948 91.1771 494.458 90.4062 493.188C89.6354 491.917 88.5625 491.198 87.1875 491.031ZM92.8125 508.812L92.3125 507.469C93 507.198 93.625 506.771 94.1875 506.188C94.7292 505.604 95.1771 505 95.5312 504.375C95.8854 503.729 96.1875 502.927 96.4375 501.969C96.6875 501.01 96.8646 500.177 96.9688 499.469C97.0938 498.74 97.1875 497.844 97.25 496.781C97.3125 495.719 97.3438 494.927 97.3438 494.406C97.3646 493.865 97.375 493.146 97.375 492.25C97.375 490.979 97.4896 490.219 97.7188 489.969C98.0104 489.656 99.625 489.5 102.562 489.5C104.875 489.5 106.188 489.49 106.5 489.469C106.542 497.927 106.646 503.417 106.812 505.938C106.604 506.562 106.24 506.875 105.719 506.875C105.365 506.875 105.021 506.729 104.688 506.438C104.354 506.146 104.146 505.792 104.062 505.375C104.042 504.562 104.031 503.354 104.031 501.75C104.031 500.958 104.031 499.76 104.031 498.156C104.052 496.552 104.062 495.344 104.062 494.531C104.062 493.031 104.052 491.906 104.031 491.156C103.156 491.302 102.292 491.385 101.438 491.406C100.583 491.427 99.9792 491.458 99.625 491.5C99.5625 492.188 99.5104 493.208 99.4688 494.562C99.4271 495.917 99.3854 497.115 99.3438 498.156C99.3229 499.177 99.1979 500.344 98.9688 501.656C98.7396 502.948 98.4062 504.052 97.9688 504.969C97.5521 505.865 96.8958 506.667 96 507.375C95.125 508.104 94.0625 508.583 92.8125 508.812ZM109.344 499.344C109.344 498.51 109.427 497.583 109.594 496.562C109.781 495.542 110.052 494.469 110.406 493.344C110.76 492.219 111.292 491.281 112 490.531C112.708 489.781 113.531 489.406 114.469 489.406C116.469 489.406 118.073 490.312 119.281 492.125C120.49 493.917 121.094 495.917 121.094 498.125C121.094 499.062 120.99 500 120.781 500.938C120.594 501.854 120.292 502.76 119.875 503.656C119.458 504.552 118.854 505.302 118.062 505.906C117.292 506.49 116.385 506.823 115.344 506.906C113.427 506.656 111.948 505.844 110.906 504.469C109.865 503.073 109.344 501.365 109.344 499.344ZM114.656 491.031C113.927 491.115 113.312 491.781 112.812 493.031C112.312 494.281 111.99 495.5 111.844 496.688C111.698 497.854 111.625 498.885 111.625 499.781C111.625 500.948 111.979 502.031 112.688 503.031C113.417 504.01 114.229 504.5 115.125 504.5C115.771 504.5 116.354 504.25 116.875 503.75C117.396 503.25 117.802 502.635 118.094 501.906C118.406 501.156 118.635 500.406 118.781 499.656C118.948 498.906 119.031 498.24 119.031 497.656C119.031 495.948 118.646 494.458 117.875 493.188C117.104 491.917 116.031 491.198 114.656 491.031ZM124.25 489.969C125.146 489.885 126.5 489.75 128.312 489.562C130.125 489.354 131.406 489.219 132.156 489.156C132.677 489.177 133.115 489.375 133.469 489.75C133.844 490.104 134.031 490.49 134.031 490.906C134.031 491.531 133.615 491.885 132.781 491.969C132.01 491.906 130.844 491.802 129.281 491.656C127.719 491.51 126.531 491.406 125.719 491.344C125.74 492.615 125.865 494.677 126.094 497.531C126.323 500.385 126.438 502.562 126.438 504.062C126.438 505.354 125.927 506 124.906 506C124.052 506 123.625 505.417 123.625 504.25C123.625 502.875 123.656 501.406 123.719 499.844C123.781 498.26 123.875 496.458 124 494.438C124.125 492.396 124.208 490.906 124.25 489.969ZM138.031 503.406C138.031 503.76 138.052 504.229 138.094 504.812C137.906 505.458 137.542 505.781 137 505.781C136.625 505.781 136.26 505.635 135.906 505.344C135.573 505.031 135.365 504.656 135.281 504.219C135.344 502.531 135.417 500.062 135.5 496.812C135.604 493.562 135.677 491.365 135.719 490.219L137.156 489.969C137.406 491.302 137.562 493.073 137.625 495.281C137.688 497.49 137.771 499.135 137.875 500.219C138.271 499.635 139.396 498.115 141.25 495.656C143.104 493.198 144.365 491.365 145.031 490.156C145.49 490.073 145.781 490.031 145.906 490.031C146.302 490.031 146.573 490.208 146.719 490.562C146.885 490.917 146.99 491.583 147.031 492.562L147.625 505.438C147.438 506.062 147.073 506.375 146.531 506.375C146.156 506.375 145.792 506.229 145.438 505.938C145.104 505.625 144.896 505.25 144.812 504.812C144.833 504.125 144.885 502.448 144.969 499.781C145.073 497.094 145.156 495.188 145.219 494.062C141.656 498.125 139.26 501.24 138.031 503.406ZM153.031 486.562L152.812 485.594C153.312 485.656 153.802 485.688 154.281 485.688C155.719 485.688 157.042 485.292 158.25 484.5C158.729 484.542 159.135 484.688 159.469 484.938C159.802 485.188 159.969 485.479 159.969 485.812C159.969 486.083 159.875 486.302 159.688 486.469C159.5 486.635 159.219 486.76 158.844 486.844C158.469 486.906 158.156 486.948 157.906 486.969C157.656 486.969 157.323 486.969 156.906 486.969C155.552 486.969 154.26 486.833 153.031 486.562ZM152.938 503.406C152.938 503.76 152.958 504.229 153 504.812C152.812 505.458 152.448 505.781 151.906 505.781C151.531 505.781 151.167 505.635 150.812 505.344C150.479 505.031 150.271 504.656 150.188 504.219C150.25 502.531 150.323 500.062 150.406 496.812C150.51 493.562 150.583 491.365 150.625 490.219L152.062 489.969C152.312 491.302 152.469 493.073 152.531 495.281C152.594 497.49 152.677 499.135 152.781 500.219C153.177 499.635 154.302 498.115 156.156 495.656C158.01 493.198 159.271 491.365 159.938 490.156C160.396 490.073 160.688 490.031 160.812 490.031C161.208 490.031 161.479 490.208 161.625 490.562C161.792 490.917 161.896 491.583 161.938 492.562L162.531 505.438C162.344 506.062 161.979 506.375 161.438 506.375C161.062 506.375 160.698 506.229 160.344 505.938C160.01 505.625 159.802 505.25 159.719 504.812C159.74 504.125 159.792 502.448 159.875 499.781C159.979 497.094 160.062 495.188 160.125 494.062C156.562 498.125 154.167 501.24 152.938 503.406Z" fill="black"/>
<g filter="url(#filter0_gn_37_2)">
<path d="M115 78.5166C118.788 75.4813 122.736 72.7035 126.794 70.1738C154.446 52.9348 187.191 47 210.354 47C234.794 47.0001 266.487 55.6864 292.479 73.9541C303.843 81.9405 314.364 91.9706 322.685 104.088C331.167 93.0842 341.56 84.1775 352.794 77.1738C380.446 59.9348 413.191 54 436.354 54C460.794 54.0001 492.487 62.6864 518.479 80.9541C543.521 98.5532 564.478 126.069 566.788 164H567V431H527V171C527 145.411 514.044 126.728 495.479 113.681C476.351 100.237 452.72 94.0001 436.354 94C418.712 94 393.78 98.7598 373.956 111.118C355.107 122.869 341 141.169 341 171V425H301V164C301 138.411 288.044 119.728 269.479 106.681C250.351 93.237 226.72 87.0001 210.354 87C192.712 87 167.78 91.7598 147.956 104.118C129.107 115.869 115 134.169 115 164V425H75V35H115V78.5166Z" fill="#787878"/>
</g>
<defs>
<filter id="filter0_gn_37_2" x="72" y="32" width="498" height="402" filterUnits="userSpaceOnUse" color-interpolation-filters="sRGB">
<feFlood flood-opacity="0" result="BackgroundImageFix"/>
<feBlend mode="normal" in="SourceGraphic" in2="BackgroundImageFix" result="shape"/>
<feTurbulence type="fractalNoise" baseFrequency="0.3333333432674408 0.3333333432674408" numOctaves="3" seed="9316" />
<feDisplacementMap in="shape" scale="6" xChannelSelector="R" yChannelSelector="G" result="displacedImage" width="100%" height="100%" />
<feMerge result="effect1_texture_37_2">
<feMergeNode in="displacedImage"/>
</feMerge>
<feTurbulence type="fractalNoise" baseFrequency="0.5 0.5" stitchTiles="stitch" numOctaves="3" result="noise" seed="7820" />
<feColorMatrix in="noise" type="luminanceToAlpha" result="alphaNoise" />
<feComponentTransfer in="alphaNoise" result="coloredNoise1">
<feFuncA type="discrete" tableValues="1 1 1 1 1 1 1 1 1 1 1 1 1 1 1 1 1 1 1 1 1 1 1 1 1 1 1 1 1 1 1 1 1 1 1 1 1 1 1 1 1 1 1 1 1 1 1 1 1 1 1 0 0 0 0 0 0 0 0 0 0 0 0 0 0 0 0 0 0 0 0 0 0 0 0 0 0 0 0 0 0 0 0 0 0 0 0 0 0 0 0 0 0 0 0 0 0 0 0 0 "/>
</feComponentTransfer>
<feComposite operator="in" in2="effect1_texture_37_2" in="coloredNoise1" result="noise1Clipped" />
<feFlood flood-color="rgba(0, 0, 0, 0.25)" result="color1Flood" />
<feComposite operator="in" in2="noise1Clipped" in="color1Flood" result="color1" />
<feMerge result="effect2_noise_37_2">
<feMergeNode in="effect1_texture_37_2" />
<feMergeNode in="color1" />
</feMerge>
</filter>
</defs>
</svg>
